<svg width="57" height="56" viewBox="0 0 57 56" fill="none" xmlns="http://www.w3.org/2000/svg">
<g clip-path="url(#clip0_147_1139)">
<path d="M4.91969 51.6879H11.6397V15.8479H4.91969V51.6879ZM12.7597 53.9279H3.79969C3.50264 53.9279 3.21777 53.8099 3.00773 53.5999C2.79769 53.3898 2.67969 53.105 2.67969 52.8079V14.7279C2.67969 14.4309 2.79769 14.146 3.00773 13.9359C3.21777 13.7259 3.50264 13.6079 3.79969 13.6079H12.7597C13.0567 13.6079 13.3416 13.7259 13.5516 13.9359C13.7617 14.146 13.8797 14.4309 13.8797 14.7279V52.8079C13.8797 53.105 13.7617 53.3898 13.5516 53.5999C13.3416 53.8099 13.0567 53.9279 12.7597 53.9279Z" fill="#F85E00"/>
<path d="M13.8787 51.688H22.8387V4.64796H13.8787V51.688ZM23.9587 53.928H12.7587C12.4616 53.928 12.1768 53.81 11.9667 53.5999C11.7567 53.3899 11.6387 53.105 11.6387 52.808V3.52796C11.6387 3.23092 11.7567 2.94604 11.9667 2.736C12.1768 2.52596 12.4616 2.40796 12.7587 2.40796H23.9587C24.2557 2.40796 24.5406 2.52596 24.7506 2.736C24.9607 2.94604 25.0787 3.23092 25.0787 3.52796V52.808C25.0787 53.105 24.9607 53.3899 24.7506 53.5999C24.5406 53.81 24.2557 53.928 23.9587 53.928Z" fill="#F85E00"/>
<path d="M25.0798 51.6879H31.7998V11.3679H25.0798V51.6879ZM32.9198 53.9279H23.9598C23.6628 53.9279 23.3779 53.8099 23.1679 53.5999C22.9578 53.3898 22.8398 53.105 22.8398 52.8079V10.2479C22.8398 9.95089 22.9578 9.66601 23.1679 9.45597C23.3779 9.24593 23.6628 9.12793 23.9598 9.12793H32.9198C33.2169 9.12793 33.5018 9.24593 33.7118 9.45597C33.9218 9.66601 34.0398 9.95089 34.0398 10.2479V52.8079C34.0398 53.105 33.9218 53.3898 33.7118 53.5999C33.5018 53.8099 33.2169 53.9279 32.9198 53.9279Z" fill="#F85E00"/>
<path d="M34.3426 15.3915L47.035 51.3575L53.895 48.7843L41.2026 12.8183L34.3426 15.3915ZM46.3602 53.9279C46.129 53.9272 45.9037 53.8553 45.7149 53.722C45.526 53.5888 45.3828 53.4006 45.3046 53.1831L31.8646 15.1031C31.7666 14.8267 31.7809 14.5229 31.9044 14.257C32.028 13.991 32.2509 13.7841 32.5254 13.6807L41.4854 10.3207C41.6248 10.2683 41.7733 10.2441 41.9221 10.2498C42.071 10.2554 42.2172 10.2906 42.3523 10.3535C42.4874 10.4163 42.6085 10.5055 42.7087 10.6157C42.8089 10.726 42.8861 10.8551 42.9358 10.9955L56.3758 49.0755C56.4729 49.3516 56.4582 49.6547 56.3347 49.92C56.2112 50.1853 55.9887 50.3917 55.715 50.4951L46.755 53.8551C46.6287 53.9026 46.495 53.9273 46.3602 53.9279ZM20.6002 49.4479H16.1202C15.8231 49.4479 15.5382 49.3299 15.3282 49.1199C15.1182 48.9098 15.0002 48.625 15.0002 48.3279C15.0002 48.0309 15.1182 47.746 15.3282 47.536C15.5382 47.3259 15.8231 47.2079 16.1202 47.2079H20.6002C20.8972 47.2079 21.1821 47.3259 21.3921 47.536C21.6022 47.746 21.7202 48.0309 21.7202 48.3279C21.7202 48.625 21.6022 48.9098 21.3921 49.1199C21.1821 49.3299 20.8972 49.4479 20.6002 49.4479ZM20.6002 44.9679H16.1202C15.8231 44.9679 15.5382 44.8499 15.3282 44.6399C15.1182 44.4298 15.0002 44.145 15.0002 43.8479C15.0002 43.5509 15.1182 43.266 15.3282 43.056C15.5382 42.8459 15.8231 42.7279 16.1202 42.7279H20.6002C20.8972 42.7279 21.1821 42.8459 21.3921 43.056C21.6022 43.266 21.7202 43.5509 21.7202 43.8479C21.7202 44.145 21.6022 44.4298 21.3921 44.6399C21.1821 44.8499 20.8972 44.9679 20.6002 44.9679ZM19.4802 38.2479C19.1831 38.2479 18.8982 38.1299 18.6882 37.9199C18.4782 37.7098 18.3602 37.425 18.3602 37.1279V10.2479C18.3602 9.95089 18.4782 9.66601 18.6882 9.45597C18.8982 9.24593 19.1831 9.12793 19.4802 9.12793C19.7772 9.12793 20.0621 9.24593 20.2721 9.45597C20.4822 9.66601 20.6002 9.95089 20.6002 10.2479V37.1279C20.6002 37.425 20.4822 37.7098 20.2721 37.9199C20.0621 38.1299 19.7772 38.2479 19.4802 38.2479ZM8.28016 49.4479C7.98311 49.4479 7.69824 49.3299 7.4882 49.1199C7.27816 48.9098 7.16016 48.625 7.16016 48.3279V37.1279C7.16016 36.8309 7.27816 36.546 7.4882 36.336C7.69824 36.1259 7.98311 36.0079 8.28016 36.0079C8.5772 36.0079 8.86208 36.1259 9.07212 36.336C9.28216 36.546 9.40016 36.8309 9.40016 37.1279V48.3279C9.40016 48.625 9.28216 48.9098 9.07212 49.1199C8.86208 49.3299 8.5772 49.4479 8.28016 49.4479ZM8.28016 33.7679C7.98311 33.7679 7.69824 33.6499 7.4882 33.4399C7.27816 33.2298 7.16016 32.945 7.16016 32.6479V30.4079C7.16016 30.1109 7.27816 29.826 7.4882 29.616C7.69824 29.4059 7.98311 29.2879 8.28016 29.2879C8.5772 29.2879 8.86208 29.4059 9.07212 29.616C9.28216 29.826 9.40016 30.1109 9.40016 30.4079V32.6479C9.40016 32.945 9.28216 33.2298 9.07212 33.4399C8.86208 33.6499 8.5772 33.7679 8.28016 33.7679ZM29.5602 49.4479H27.3202C27.0231 49.4479 26.7382 49.3299 26.5282 49.1199C26.3182 48.9098 26.2002 48.625 26.2002 48.3279C26.2002 48.0309 26.3182 47.746 26.5282 47.536C26.7382 47.3259 27.0231 47.2079 27.3202 47.2079H29.5602C29.8572 47.2079 30.1421 47.3259 30.3521 47.536C30.5622 47.746 30.6802 48.0309 30.6802 48.3279C30.6802 48.625 30.5622 48.9098 30.3521 49.1199C30.1421 49.3299 29.8572 49.4479 29.5602 49.4479ZM28.4402 44.9679C28.1431 44.9679 27.8582 44.8499 27.6482 44.6399C27.4382 44.4298 27.3202 44.145 27.3202 43.8479V28.1679C27.3202 27.8709 27.4382 27.586 27.6482 27.376C27.8582 27.1659 28.1431 27.0479 28.4402 27.0479C28.7372 27.0479 29.0221 27.1659 29.2321 27.376C29.4422 27.586 29.5602 27.8709 29.5602 28.1679V43.8479C29.5602 44.145 29.4422 44.4298 29.2321 44.6399C29.0221 44.8499 28.7372 44.9679 28.4402 44.9679Z" fill="#F85E00"/>
<path d="M47.4786 41.608C47.2514 41.6081 47.0295 41.539 46.8425 41.41C46.6554 41.2809 46.512 41.0981 46.4314 40.8856L37.4714 17.3656C37.4192 17.2281 37.3945 17.0817 37.3989 16.9346C37.4033 16.7876 37.4366 16.6429 37.4969 16.5087C37.5573 16.3745 37.6434 16.2536 37.7505 16.1527C37.8576 16.0518 37.9835 15.9731 38.121 15.9208C38.2585 15.8686 38.405 15.844 38.552 15.8484C38.699 15.8528 38.8438 15.8861 38.9779 15.9464C39.1121 16.0067 39.233 16.0929 39.3339 16.2C39.4348 16.307 39.5136 16.4329 39.5658 16.5704L48.5258 40.0904C48.5902 40.26 48.6124 40.4427 48.5906 40.6227C48.5688 40.8028 48.5036 40.9749 48.4006 41.1241C48.2976 41.2734 48.1598 41.3955 47.9992 41.4797C47.8386 41.564 47.66 41.6081 47.4786 41.608Z" fill="#F85E00"/>
</g>
<defs>
<clipPath id="clip0_147_1139">
<rect width="56" height="56" fill="white" transform="translate(0.859375)"/>
</clipPath>
</defs>
</svg>
