<svg width="86" height="86" viewBox="0 0 86 86" fill="none" xmlns="http://www.w3.org/2000/svg">
<g clip-path="url(#clip0_147_2112)">
<path fill-rule="evenodd" clip-rule="evenodd" d="M78.3974 52.806C78.0227 52.8033 77.6641 52.6533 77.3991 52.3883C77.1341 52.1233 76.9841 51.7647 76.9814 51.39V3.22295H30.8174L8.98144 25.04V51.39C8.98144 52.155 8.34644 52.806 7.56444 52.806C7.1897 52.8033 6.83105 52.6533 6.56607 52.3883C6.30108 52.1233 6.15106 51.7647 6.14844 51.39V24.473C6.14844 24.077 6.29544 23.737 6.56144 23.453L29.2284 0.786954C29.4992 0.530378 29.8585 0.388167 30.2314 0.389954H78.3974C78.5838 0.389026 78.7685 0.425045 78.9408 0.495928C79.1131 0.56681 79.2697 0.67115 79.4015 0.802916C79.5332 0.934682 79.6376 1.09126 79.7085 1.2636C79.7794 1.43593 79.8154 1.62061 79.8144 1.80695V51.39C79.8144 52.155 79.1794 52.806 78.3974 52.806Z" fill="#F85E00"/>
<path fill-rule="evenodd" clip-rule="evenodd" d="M30.2305 25.89H7.56347C7.18856 25.8873 6.82976 25.7372 6.56475 25.472C6.29974 25.2068 6.14983 24.8479 6.14747 24.473C6.14747 23.68 6.77847 23.057 7.56347 23.057H28.8135V1.80697C28.8135 1.01297 29.4455 0.389971 30.2305 0.389971C30.4168 0.389044 30.6015 0.425062 30.7738 0.495945C30.9462 0.566827 31.1027 0.671167 31.2345 0.802933C31.3663 0.934699 31.4706 1.09128 31.5415 1.26361C31.6124 1.43595 31.6484 1.62063 31.6475 1.80697V24.473C31.6475 25.238 31.0125 25.89 30.2305 25.89ZM76.9805 85.39H8.98047C4.21147 85.39 0.480469 81.65 0.480469 76.89V53.43C0.480469 50.795 1.29047 48.273 2.82347 46.148L6.37647 40.68C6.58421 40.3686 6.90681 40.1521 7.27374 40.0779C7.64066 40.0036 8.02204 40.0778 8.33447 40.284C8.99147 40.709 9.17547 41.587 8.75047 42.239L5.15847 47.764C3.93747 49.464 3.31347 51.39 3.31347 53.43V76.89C3.31347 80.063 5.80347 82.557 8.98047 82.557H76.9805C80.1565 82.557 82.6465 80.063 82.6465 76.89V53.147C82.648 51.2841 82.1036 49.4617 81.0805 47.905L77.2265 42.267C77.015 41.9543 76.9351 41.5709 77.0042 41.1998C77.0733 40.8287 77.2857 40.4997 77.5955 40.284C77.9087 40.0808 78.288 40.0057 78.655 40.0742C79.0219 40.1427 79.3486 40.3495 79.5675 40.652L83.4345 46.318C84.7727 48.3442 85.4844 50.7197 85.4805 53.148V76.89C85.4805 81.65 81.7455 85.39 76.9805 85.39Z" fill="#F85E00"/>
<path fill-rule="evenodd" clip-rule="evenodd" d="M59.9814 68.39H25.9814C21.2124 68.39 17.4814 64.65 17.4814 59.89C17.4814 56.66 15.0444 54.223 11.8144 54.223H3.31444C2.9397 54.2203 2.58105 54.0703 2.31607 53.8053C2.05108 53.5403 1.90106 53.1817 1.89844 52.807C1.89844 52.013 2.52944 51.39 3.31444 51.39H11.8144C16.5804 51.39 20.3144 55.102 20.3144 59.89C20.3144 63.12 22.7484 65.556 25.9814 65.556H59.9814C63.2114 65.556 65.6474 63.12 65.6474 59.89C65.6474 55.102 69.3794 51.39 74.1474 51.39H82.6474C82.8337 51.389 83.0183 51.425 83.1906 51.4958C83.3628 51.5667 83.5194 51.6709 83.6511 51.8026C83.7829 51.9342 83.8872 52.0907 83.9582 52.2629C84.0291 52.4351 84.0652 52.6197 84.0644 52.806C84.0644 53.572 83.4294 54.223 82.6474 54.223H74.1474C70.9154 54.223 68.4814 56.66 68.4814 59.89C68.4814 64.65 64.7464 68.39 59.9814 68.39ZM69.8974 17.39H41.5644C41.1895 17.3873 40.8307 17.2372 40.5657 16.972C40.3007 16.7068 40.1508 16.3479 40.1484 15.973C40.1484 15.18 40.7794 14.557 41.5644 14.557H69.8974C70.0837 14.556 70.2683 14.592 70.4406 14.6628C70.6128 14.7337 70.7694 14.8379 70.9011 14.9696C71.0329 15.1012 71.1372 15.2577 71.2082 15.4299C71.2791 15.6021 71.3152 15.7867 71.3144 15.973C71.3144 16.738 70.6794 17.39 69.8974 17.39ZM69.8974 28.723H41.5644C41.1897 28.7203 40.8311 28.5703 40.5661 28.3053C40.3011 28.0403 40.1511 27.6817 40.1484 27.307C40.1484 26.513 40.7794 25.89 41.5644 25.89H69.8974C70.0838 25.889 70.2685 25.925 70.4408 25.9959C70.6131 26.0668 70.7697 26.1712 70.9015 26.3029C71.0332 26.4347 71.1376 26.5913 71.2085 26.7636C71.2794 26.9359 71.3154 27.1206 71.3144 27.307C71.3144 28.072 70.6794 28.723 69.8974 28.723ZM69.8974 40.056H18.8974C18.5227 40.0533 18.1641 39.9033 17.8991 39.6383C17.6341 39.3733 17.4841 39.0147 17.4814 38.64C17.4814 37.846 18.1134 37.223 18.8984 37.223H69.8984C70.0847 37.2222 70.2693 37.2583 70.4415 37.3292C70.6137 37.4002 70.7702 37.5045 70.9018 37.6363C71.0335 37.768 71.1377 37.9246 71.2086 38.0968C71.2794 38.2691 71.3154 38.4537 71.3144 38.64C71.3144 39.405 70.6794 40.056 69.8974 40.056Z" fill="#F85E00"/>
<path fill-rule="evenodd" clip-rule="evenodd" d="M58.5635 51.39H27.3975C27.0224 51.3876 26.6633 51.2375 26.3981 50.9723C26.1329 50.7071 25.9828 50.348 25.9805 49.973C25.9805 49.18 26.6125 48.557 27.3975 48.557H58.5635C58.7497 48.556 58.9343 48.592 59.1066 48.6628C59.2789 48.7337 59.4354 48.8379 59.5672 48.9696C59.6989 49.1012 59.8033 49.2577 59.8742 49.4299C59.9451 49.6021 59.9813 49.7867 59.9805 49.973C59.9805 50.738 59.3455 51.39 58.5635 51.39Z" fill="#F85E00"/>
</g>
<defs>
<clipPath id="clip0_147_2112">
<rect width="85" height="85" fill="white" transform="translate(0.480469 0.389954)"/>
</clipPath>
</defs>
</svg>
