<svg width="86" height="86" viewBox="0 0 86 86" fill="none" xmlns="http://www.w3.org/2000/svg">
<g clip-path="url(#clip0_147_2133)">
<path fill-rule="evenodd" clip-rule="evenodd" d="M61.2743 28.808C50.4453 29.403 41.2883 33.313 37.5053 37.195C33.4343 41.332 33.4343 48.103 37.5053 52.268C38.7323 53.515 40.8653 54.223 43.5063 54.223C47.1103 54.223 51.0203 52.892 52.7963 51.078C56.3893 47.423 57.3253 42.748 58.2283 38.272C58.8883 35.013 59.5633 31.67 61.2743 28.808ZM43.5063 57.057C40.0983 57.057 37.2483 56.065 35.4803 54.252C30.3373 48.982 30.3373 40.453 35.4803 35.212C40.8493 29.715 52.6583 25.89 64.2013 25.89C64.7713 25.89 65.2833 26.23 65.5073 26.74C65.6152 27.0001 65.6449 27.2861 65.5927 27.5628C65.5405 27.8396 65.4086 28.095 65.2133 28.298C62.5923 30.962 61.8233 34.787 61.0083 38.838C60.0683 43.485 59.0023 48.783 54.8233 53.062C52.4913 55.442 47.9413 57.057 43.5063 57.057Z" fill="#F85E00"/>
<path fill-rule="evenodd" clip-rule="evenodd" d="M33.0351 59.89C32.6602 59.8873 32.3014 59.7372 32.0364 59.472C31.7714 59.2068 31.6215 58.8479 31.6191 58.473C31.6191 49.01 42.9581 40.057 47.2021 40.057C47.3884 40.056 47.573 40.092 47.7453 40.1628C47.9175 40.2337 48.0741 40.3379 48.2058 40.4696C48.3376 40.6012 48.4419 40.7577 48.5129 40.9299C48.5838 41.1021 48.6199 41.2867 48.6191 41.473C48.6191 42.238 47.9841 42.89 47.2021 42.89C44.5051 42.89 34.4521 50.795 34.4521 58.473C34.4521 59.238 33.8171 59.89 33.0351 59.89Z" fill="#F85E00"/>
<path fill-rule="evenodd" clip-rule="evenodd" d="M17.7682 3.22295C16.9824 3.22177 16.2042 3.37558 15.4779 3.67557C14.7517 3.97556 14.0918 4.41585 13.536 4.97122C12.9801 5.52659 12.5393 6.18614 12.2387 6.91211C11.9381 7.63808 11.7836 8.41621 11.7842 9.20195V76.55C11.7842 79.865 14.4672 82.557 17.7682 82.557H68.1312C71.4312 82.557 74.1182 79.865 74.1182 76.55V9.20195C74.1183 8.41607 73.9635 7.63787 73.6626 6.91188C73.3616 6.1859 72.9205 5.52637 72.3644 4.97104C71.8084 4.41571 71.1482 3.97547 70.4218 3.67551C69.6955 3.37556 68.9171 3.22177 68.1312 3.22295H17.7682ZM68.1312 85.39H17.7682C12.9062 85.39 8.95117 81.423 8.95117 76.55V9.20195C8.95117 4.32795 12.9062 0.389954 17.7682 0.389954H68.1312C72.9932 0.389954 76.9512 4.32795 76.9512 9.20195V76.55C76.9512 81.423 72.9932 85.39 68.1312 85.39Z" fill="#F85E00"/>
<path fill-rule="evenodd" clip-rule="evenodd" d="M21.7002 85.39C21.3251 85.3876 20.9661 85.2375 20.7008 84.9723C20.4356 84.7071 20.2856 84.348 20.2832 83.973V1.80695C20.2832 1.01295 20.9152 0.389954 21.7002 0.389954C21.8865 0.389026 22.0712 0.425045 22.2436 0.495928C22.4159 0.56681 22.5725 0.67115 22.7042 0.802916C22.836 0.934682 22.9403 1.09126 23.0112 1.2636C23.0821 1.43593 23.1181 1.62061 23.1172 1.80695V83.973C23.1172 84.738 22.4822 85.39 21.7002 85.39Z" fill="#F85E00"/>
</g>
<defs>
<clipPath id="clip0_147_2133">
<rect width="85" height="85" fill="white" transform="translate(0.451172 0.389954)"/>
</clipPath>
</defs>
</svg>
