<svg width="24" height="24" viewBox="0 0 24 24" fill="none" xmlns="http://www.w3.org/2000/svg">
<path d="M23 12C23 14.2696 22.3127 16.3786 21.1348 18.1303C19.1598 21.0675 15.8056 23 12 23C8.19444 23 4.84025 21.0675 2.86522 18.1303C1.68734 16.3786 1 14.2696 1 12C1 5.92487 5.92487 1 12 1C18.0751 1 23 5.92487 23 12Z" stroke="#292929"/>
<path d="M14.4446 8.33336C14.4446 9.68339 13.3501 10.7778 12.0001 10.7778C10.6501 10.7778 9.55566 9.68339 9.55566 8.33336C9.55566 6.98333 10.6501 5.88892 12.0001 5.88892C13.3501 5.88892 14.4446 6.98333 14.4446 8.33336Z" stroke="#292929"/>
<path d="M15.667 15.6667H8.33364C6.11927 15.6667 4.24876 17.1389 3.64746 19.1579C5.66488 21.51 8.65857 23.0001 12.0003 23.0001C15.342 23.0001 18.3357 21.51 20.3531 19.1579C19.7518 17.1389 17.8813 15.6667 15.667 15.6667Z" stroke="#292929"/>
</svg>
