<svg width="479" height="344" viewBox="0 0 479 344" fill="none" xmlns="http://www.w3.org/2000/svg">
<g clip-path="url(#clip0_105_153)">
<path d="M351.196 216.318C350.829 217.496 350.462 218.655 350.115 219.833C348.667 223.251 347.219 226.669 345.772 230.087C345.096 232.114 344.42 234.142 343.764 236.169C343.552 236.652 343.339 237.116 343.127 237.598C342.76 238.776 342.413 239.935 342.046 241.113C341.834 241.596 341.621 242.079 341.409 242.561C341.235 243.256 341.081 243.952 340.907 244.647C340.753 244.937 340.618 245.226 340.463 245.516C340.174 246.385 339.884 247.234 339.595 248.103C339.054 250.71 338.494 253.317 337.954 255.944C337.857 256.388 337.78 256.832 337.684 257.295C337.51 257.778 337.336 258.28 337.163 258.763C336.854 260.964 336.275 263.166 336.333 265.348C336.448 269.326 336.95 273.285 337.278 277.243C337.471 277.494 337.664 277.765 337.857 278.035C337.935 278.247 337.993 278.46 337.993 278.692C338.243 278.904 338.494 279.097 338.745 279.309C339.016 279.464 339.286 279.638 339.575 279.792C342.741 279.869 345.926 279.947 349.092 280.024C350.694 279.869 352.296 279.715 353.898 279.541C354.168 279.367 354.419 279.194 354.69 279C356.099 278.035 355.983 276.683 355.635 275.274C355.558 274.829 355.481 274.385 355.423 273.941C355.327 272.782 355.211 271.624 355.114 270.465C354.303 269.558 354.825 268.94 355.558 268.36C356.002 261.157 357.604 254.244 359.65 247.312C361.87 239.819 366.059 233.466 369.668 226.746C372.641 221.204 375.691 215.7 378.644 210.158C378.953 209.598 378.915 208.845 379.03 208.188C379.166 207.667 379.32 207.146 379.455 206.624C379.513 206.238 379.59 205.852 379.648 205.466C379.552 203.94 379.455 202.395 379.359 200.87C378.799 197.104 377.119 193.821 375.054 190.693C374.822 190.114 374.591 189.515 374.359 188.936C374.224 188.549 374.089 188.144 373.954 187.758C373.819 187.256 373.703 186.734 373.568 186.232C373.413 184.069 373.259 181.907 373.104 179.744C373.317 178.952 373.51 178.141 373.722 177.349C374.629 174.491 375.594 171.653 376.424 168.775C376.849 167.288 377.062 165.744 377.409 164.063C376.502 163.697 375.807 163.407 375.073 163.117C374.9 162.287 374.707 161.399 374.494 160.433C373.085 160.163 371.637 159.777 370.749 161.148C370.055 162.248 369.418 162.152 368.53 161.669C368.337 161.514 368.144 161.379 367.951 161.225H367.912C364.071 161.225 365.345 165.01 364.109 166.612C362.835 165.608 361.677 164.72 360.519 163.812C360.036 163.658 359.573 163.503 359.091 163.349C358.82 163.156 358.55 162.982 358.28 162.789C358.029 162.615 357.759 162.461 357.508 162.287C355.867 162.557 354.246 162.808 352.701 163.059C351.852 161.746 351.061 160.549 350.288 159.332C349.651 158.85 349.014 158.386 348.377 157.903H348.358C348.069 157.749 347.798 157.614 347.509 157.479C347.374 157.363 347.219 157.285 347.046 157.247C345.694 157.691 344.112 157.845 343.05 158.657C342.278 159.255 342.201 160.723 341.737 161.978C341.235 161.785 340.753 161.592 340.251 161.399C338.514 161.437 336.738 162.731 335.02 161.148C334.788 160.916 333.997 161.225 333.476 161.36C332.549 161.592 331.623 161.901 330.696 162.171C330.464 162.383 330.233 162.596 330.001 162.808C329.866 162.924 329.789 163.079 329.77 163.252C329.924 165.492 330.078 167.733 330.233 169.992C330.387 170.803 330.542 171.614 330.696 172.425C331.044 173.545 331.372 174.646 331.719 175.766C331.719 175.997 331.7 176.229 331.681 176.461C331.893 177.426 332.124 178.373 332.337 179.338C333.07 181.038 333.785 182.737 334.518 184.436C335.001 185.363 335.483 186.29 335.946 187.217C336.487 188.318 337.008 189.418 337.549 190.519C337.78 190.983 338.031 191.446 338.263 191.929C338.9 192.952 339.556 193.956 340.193 194.98C340.598 195.482 341.004 195.984 341.409 196.505C341.544 196.641 341.641 196.795 341.737 196.95C341.95 197.181 342.162 197.432 342.374 197.664C342.606 197.896 342.818 198.147 343.05 198.379C343.282 198.61 343.494 198.842 343.726 199.074C344.536 199.885 345.328 200.696 346.138 201.507L346.833 202.144L346.872 202.183C347.103 202.395 347.335 202.588 347.567 202.801H347.605C347.837 203.032 348.069 203.245 348.3 203.438L348.339 203.457C348.783 203.921 349.246 204.365 349.69 204.828C349.825 204.963 349.922 205.118 350.018 205.292C350.211 205.543 350.385 205.794 350.578 206.045C350.906 206.798 351.254 207.551 351.582 208.285C351.755 209.772 351.91 211.259 352.084 212.765C351.794 213.962 351.524 215.179 351.234 216.395L351.196 216.318Z" fill="#622F15"/>
<path d="M211.849 150.372C211.694 150.276 211.54 150.179 211.385 150.083C211.134 149.909 210.883 149.754 210.632 149.581L210.575 149.542C210.324 149.368 210.053 149.194 209.802 149.021C209.108 148.596 208.413 148.171 207.698 147.746H207.679C206.965 147.321 206.27 146.935 205.556 146.529H205.517C204.803 146.124 204.089 145.718 203.375 145.332H203.355C202.641 144.927 201.927 144.54 201.213 144.135C200.498 143.71 199.804 143.305 199.089 142.899H199.051C198.781 142.706 198.51 142.551 198.24 142.378C197.815 142.127 197.41 141.895 196.985 141.644L196.927 141.605C196.677 141.431 196.406 141.258 196.155 141.103C195.48 140.659 194.804 140.234 194.129 139.79L194.051 139.732C193.8 139.558 193.569 139.384 193.318 139.211H193.279C193.028 138.998 192.777 138.805 192.507 138.631C192.256 138.438 191.986 138.245 191.735 138.033C191.484 137.84 191.233 137.627 190.982 137.434C190.731 137.222 190.48 137.009 190.249 136.816C189.998 136.604 189.766 136.391 189.515 136.179C189.284 135.967 189.033 135.754 188.782 135.542C188.55 135.31 188.299 135.098 188.067 134.885C187.836 134.673 187.585 134.441 187.353 134.229C187.122 134.016 186.871 133.804 186.62 133.591C186.137 133.881 185.674 134.151 185.191 134.441C185.191 134.673 185.269 134.885 185.384 135.078C185.558 135.329 185.751 135.58 185.925 135.831C186.021 136.024 186.137 136.198 186.253 136.372C186.678 137.067 187.083 137.762 187.508 138.458C186.697 138.651 185.848 139.114 185.114 138.979C183.222 138.651 181.369 138.033 179.516 139.076V139.114C179.265 139.327 179.034 139.539 178.783 139.732C177.605 139.887 176.389 140.273 175.25 140.157C172.509 139.848 172.509 139.751 171.467 143.15C170 142.242 168.649 141.296 167.22 140.543C166.255 140.041 165.155 139.558 164.113 139.52C162.414 139.481 161.777 140.891 162.742 142.339C163.109 142.899 163.688 143.324 164.209 143.768C176.312 154.138 189.631 162.731 203.452 170.61C204.436 171.17 205.479 171.711 206.56 172.02C207.602 172.309 208.721 172.29 209.976 172.425C211.231 171.035 212.601 169.509 213.972 168.003C214.165 167.771 214.339 167.539 214.532 167.308L214.59 167.23C214.763 167.018 214.937 166.786 215.111 166.555L215.207 166.439C215.381 166.226 215.535 166.014 215.709 165.801C216.192 165.106 216.674 164.411 217.157 163.716C217.311 163.446 217.485 163.195 217.639 162.943C217.948 162.094 218.276 161.244 218.585 160.394C218.508 159.641 218.431 158.888 218.334 158.135C218.006 157.208 217.678 156.281 217.331 155.374C217.041 154.968 216.732 154.582 216.443 154.176C216.211 153.945 215.999 153.713 215.767 153.481C215.535 153.269 215.284 153.056 215.053 152.825C214.802 152.612 214.57 152.4 214.319 152.207C214.068 151.994 213.817 151.801 213.567 151.608C213.316 151.415 213.045 151.222 212.794 151.029C212.543 150.836 212.293 150.643 212.022 150.45L211.849 150.372Z" fill="#643016"/>
<path d="M28.1438 131.042C28.9416 128.867 28.0859 127 25.5765 125.442C26.117 124.283 26.8312 123.144 27.1593 121.908C27.584 120.286 25.9433 119.997 25.287 119.514C25.8661 116.424 26.6189 113.585 26.8891 110.689C27.0628 108.816 26.0591 108.314 24.3604 108.758C20.9631 109.665 17.5079 110.438 14.1299 111.481C10.2887 112.678 6.5053 114.03 2.74125 115.478C1.40935 115.999 0.116059 116.791 0.000241888 118.625C-0.134878 120.557 0.888173 121.734 2.39379 122.41C6.71763 124.341 11.0994 126.195 15.5197 127.875C18.0677 128.841 20.7508 129.459 23.4146 130.135C24.9009 130.521 26.4258 130.714 28.1631 131.023L28.1438 131.042Z" fill="#643016"/>
<path d="M360.48 163.735C361.639 164.643 362.797 165.55 364.071 166.535C365.306 164.952 364.013 161.147 367.873 161.128C367.005 160.066 365.654 160.356 365.383 161.167C364.515 163.793 362.546 163.735 360.48 163.735Z" fill="#986D5B"/>
<path d="M345.772 230.086C347.22 226.669 348.668 223.251 350.116 219.833C349.459 220.837 348.629 221.764 348.205 222.864C347.278 225.22 346.583 227.673 345.792 230.086H345.772Z" fill="#BFAA9F"/>
<path d="M179.459 139.037C181.312 138.013 183.165 138.612 185.057 138.94C185.809 139.075 186.659 138.612 187.45 138.419C187.025 137.724 186.62 137.028 186.195 136.333C186.292 136.7 186.388 137.067 186.485 137.434C186.562 137.685 186.62 137.955 186.697 138.206C186.427 138.206 186.157 138.187 185.887 138.168C184.709 138.013 183.512 137.82 182.316 137.704C181.138 137.588 179.864 137.395 179.439 139.017L179.459 139.037Z" fill="#B88E80"/>
<path d="M340.193 161.341C340.676 161.534 341.178 161.727 341.68 161.92C342.143 160.665 342.22 159.178 342.992 158.598C344.054 157.787 345.617 157.633 346.988 157.189C344.459 156.262 342.201 157.15 341.409 159.564C341.158 160.336 341.216 161.147 340.213 161.36L340.193 161.341Z" fill="#A07968"/>
<path d="M337.973 255.924C338.514 253.317 339.074 250.71 339.614 248.084C338.437 250.556 337.105 253.008 337.973 255.924Z" fill="#BFAA9F"/>
<path d="M330.175 169.934C330.021 167.694 329.866 165.454 329.712 163.194C328.921 165.512 329.365 167.732 330.175 169.934Z" fill="#997765"/>
<path d="M349.131 279.985C345.965 279.908 342.78 279.831 339.614 279.753C340 279.947 340.386 280.294 340.772 280.313C343.591 280.391 346.409 280.41 349.208 280.449C349.188 280.294 349.15 280.14 349.131 279.985Z" fill="#AEBDB6"/>
<path d="M379.34 200.85C379.436 202.376 379.533 203.92 379.629 205.446C380.382 203.863 380.208 202.337 379.34 200.85Z" fill="#A08070"/>
<path d="M349.131 279.985C349.15 280.14 349.189 280.294 349.208 280.449C350.771 280.14 352.354 279.831 353.918 279.502C352.316 279.657 350.713 279.831 349.111 279.985H349.131Z" fill="#9EAA9F"/>
<path d="M185.134 134.422C185.617 134.132 186.08 133.842 186.562 133.553C186.061 133.244 185.559 132.954 185.076 132.645C185.095 133.244 185.115 133.823 185.134 134.422Z" fill="#B88E80"/>
<path d="M217.195 155.316C217.523 156.243 217.852 157.169 218.199 158.077C218.353 158.077 218.489 158.077 218.643 158.077C218.16 157.15 217.678 156.243 217.195 155.316Z" fill="#B88E80"/>
<path d="M218.643 158.077C218.489 158.077 218.354 158.077 218.199 158.077C218.276 158.83 218.354 159.583 218.45 160.337C218.527 159.583 218.585 158.811 218.643 158.058V158.077Z" fill="#AA8C7D"/>
<path d="M335.908 187.159C335.425 186.232 334.943 185.305 334.479 184.378C334.73 185.421 334.422 186.753 335.908 187.159Z" fill="#BFAA9F"/>
<path d="M332.298 179.28C332.086 178.315 331.854 177.368 331.642 176.403C330.966 177.561 331.198 178.527 332.298 179.28Z" fill="#BFAA9F"/>
<path d="M194.071 139.771C194.747 140.195 195.422 140.639 196.098 141.084C195.422 140.639 194.747 140.215 194.071 139.771Z" fill="#B88E80"/>
<path d="M355.559 268.341C354.826 268.92 354.304 269.538 355.115 270.446C355.269 269.751 355.405 269.036 355.559 268.341Z" fill="#8B6450"/>
<path d="M199.051 142.899C199.765 143.304 200.46 143.71 201.174 144.135C200.46 143.729 199.765 143.324 199.051 142.899Z" fill="#B88E80"/>
<path d="M205.537 146.529C206.251 146.935 206.946 147.34 207.66 147.727C206.946 147.321 206.232 146.916 205.537 146.529Z" fill="#B88E80"/>
<path d="M207.68 147.765C208.375 148.19 209.069 148.615 209.784 149.02C209.089 148.595 208.394 148.171 207.68 147.765Z" fill="#B88E80"/>
<path d="M355.424 273.922C355.501 274.366 355.578 274.81 355.636 275.254C355.559 274.81 355.501 274.366 355.424 273.922Z" fill="#8B6450"/>
<path d="M349.652 204.732C349.208 204.268 348.745 203.824 348.301 203.361C348.745 203.805 349.208 204.268 349.652 204.732Z" fill="#BFAA9F"/>
<path d="M341.39 196.428C340.985 195.926 340.579 195.424 340.174 194.903C340.579 195.405 340.985 195.907 341.39 196.428Z" fill="#BFAA9F"/>
<path d="M338.243 191.871C338.012 191.407 337.761 190.944 337.529 190.461C337.761 190.925 338.012 191.388 338.243 191.871Z" fill="#BFAA9F"/>
<path d="M178.706 139.693C178.957 139.481 179.189 139.269 179.44 139.075C179.189 139.288 178.957 139.5 178.706 139.693Z" fill="#B88E80"/>
<path d="M347.432 157.42C347.721 157.556 347.991 157.691 348.281 157.845C348.011 157.71 347.721 157.556 347.432 157.42Z" fill="#A07968"/>
<path d="M190.191 136.816C190.442 137.029 190.693 137.222 190.925 137.434C190.674 137.222 190.423 137.029 190.191 136.816Z" fill="#B88E80"/>
<path d="M367.912 161.167C368.105 161.321 368.298 161.476 368.491 161.611C368.298 161.456 368.105 161.321 367.912 161.167Z" fill="#986D5B"/>
<path d="M357.45 162.209C357.701 162.383 357.971 162.538 358.222 162.712C357.971 162.557 357.72 162.383 357.45 162.209Z" fill="#986D5B"/>
<path d="M189.438 136.179C189.689 136.391 189.921 136.604 190.172 136.797C189.921 136.584 189.689 136.372 189.438 136.179Z" fill="#B88E80"/>
<path d="M188.724 135.522C188.955 135.735 189.206 135.947 189.457 136.159C189.226 135.947 188.975 135.735 188.724 135.522Z" fill="#B88E80"/>
<path d="M214.995 166.516C214.821 166.728 214.647 166.96 214.474 167.192C214.647 166.96 214.821 166.748 214.995 166.516Z" fill="#AA8C7D"/>
<path d="M217.505 162.885C217.351 163.156 217.177 163.407 217.022 163.658C217.177 163.407 217.351 163.137 217.505 162.885Z" fill="#AA8C7D"/>
<path d="M346.795 202.067L346.101 201.429C346.332 201.642 346.564 201.854 346.795 202.067Z" fill="#BFAA9F"/>
<path d="M348.262 203.341C348.031 203.148 347.799 202.936 347.567 202.723C347.799 202.936 348.031 203.129 348.262 203.341Z" fill="#BFAA9F"/>
<path d="M211.849 150.372C212.119 150.565 212.37 150.758 212.621 150.932C212.37 150.739 212.1 150.546 211.849 150.372Z" fill="#B88E80"/>
<path d="M210.633 149.58C210.884 149.754 211.135 149.909 211.386 150.082C211.135 149.909 210.884 149.735 210.633 149.58Z" fill="#B88E80"/>
<path d="M186.562 133.572C186.794 133.784 187.045 133.997 187.296 134.209C187.045 133.997 186.813 133.784 186.562 133.572Z" fill="#B88E80"/>
<path d="M198.221 142.377C198.491 142.551 198.761 142.725 199.031 142.88C198.761 142.706 198.491 142.532 198.221 142.377Z" fill="#B88E80"/>
<path d="M196.117 141.084C196.368 141.258 196.638 141.431 196.889 141.586C196.638 141.412 196.368 141.258 196.117 141.084Z" fill="#B88E80"/>
<path d="M192.469 138.612C192.72 138.805 192.971 138.979 193.241 139.172C192.99 138.979 192.739 138.805 192.469 138.612Z" fill="#B88E80"/>
<path d="M23.0092 120.421C23.4531 117.891 23.8778 115.342 24.2832 113.044C19.1872 110.824 14.0913 108.796 9.20763 106.382C6.79478 105.185 4.47844 103.524 2.56746 101.632C-0.0963367 99.0056 0.637171 95.9931 4.11168 94.5835C6.42802 93.6373 8.86018 92.9228 11.3116 92.3434C17.836 90.8179 24.3797 89.4275 31.0585 87.9406C32.7378 84.1364 34.9769 80.6605 37.7951 77.4356C43.8948 70.4065 50.3613 63.8795 58.2176 58.7429C63.7575 55.1125 68.892 50.8642 74.181 46.8862C81.0335 41.7302 87.7123 36.3232 94.7578 31.4569C105.896 23.752 117.844 17.4953 130.68 13.0539C142.127 9.0952 153.805 6.08274 165.792 4.26754C166.236 4.20961 166.7 4.15167 167.143 4.09374C172.355 3.39856 177.586 2.76131 182.798 1.98888C201.329 -0.753233 219.879 -0.347709 238.467 1.21645C250.59 2.22061 262.364 5.00134 274.081 8.1876C300.584 15.3712 324.886 26.7258 345.984 44.6847C366.156 61.8519 376.869 76.219 386.848 100.917C388.026 103.814 389.744 106.324 392.195 108.352C398.102 113.238 404.047 118.085 409.819 123.125C435.453 145.544 454.544 172.541 466.569 204.48C468.345 209.231 470.719 213.788 471.24 218.944C469.021 219.176 468.191 220.933 467.708 222.652C466.666 226.379 465.585 230.125 465.083 233.929C464.176 240.842 463.693 247.814 463.017 254.765C462.535 254.572 462.052 254.379 461.57 254.205C460.778 250.092 460.334 245.863 459.138 241.885C457.169 235.358 454.756 228.947 452.42 222.517C451.108 218.867 449.583 215.294 448.154 211.683C447.942 211.162 447.73 210.621 447.479 210.1C446.919 208.903 446.166 207.763 444.68 208.053C443.02 208.362 442.73 209.829 442.73 211.258C442.73 212.514 442.885 213.769 442.943 215.024C443.309 223.231 443.657 231.438 444.004 239.664C444.004 240.128 444.004 240.591 444.004 241.035C444.004 244.009 444.12 246.983 443.946 249.938C443.85 251.483 443.251 253.008 442.769 255.055C441.958 253.394 441.379 252.139 440.742 250.903C436.785 243.044 432.886 235.165 428.794 227.383C427.153 224.255 425.454 224.39 423.852 227.421C423.871 227.866 423.91 228.329 423.929 228.773C424.315 231.496 424.721 234.238 425.126 236.961C425.203 237.637 425.28 238.332 425.338 239.008C425.647 242.677 425.956 246.346 426.265 250.015C425.975 250.054 425.705 250.092 425.416 250.112C422.655 245.38 419.895 240.669 417.135 235.957C416.671 235.184 416.285 234.219 415.59 233.736C414.838 233.215 413.621 232.751 412.888 233.022C412.174 233.292 411.537 234.489 411.421 235.358C411.267 236.44 411.691 237.598 411.846 238.718C411.479 238.757 411.112 238.815 410.726 238.873C410.012 237.328 409.298 235.783 408.564 234.238C407.946 232.944 407.116 231.786 405.534 231.863C403.796 231.94 402.966 233.273 402.6 234.779C401.596 238.873 400.476 242.947 399.839 247.099C399.183 251.463 399.086 255.905 398.623 260.308C398.507 261.466 397.967 262.586 397.619 263.706C397.118 260.964 396.693 258.222 396.114 255.499C395.129 250.845 394.048 246.211 392.987 241.557C392.716 240.842 392.466 240.147 392.195 239.433C391.5 235.59 390.786 231.728 390.091 227.885C390.014 227.421 389.937 226.977 389.879 226.514C389.396 223.849 388.952 221.184 388.431 218.539C388.103 216.878 387.659 215.256 387.273 213.614C386.385 209.772 385.497 205.929 384.629 202.105C384.358 201.661 384.088 201.217 383.818 200.773C383.49 198.958 383.162 197.142 382.833 195.327C382.756 194.864 382.679 194.42 382.602 193.975C382.332 192.836 382.081 191.716 381.81 190.577C381.733 190.113 381.656 189.669 381.579 189.225C381.077 186.966 380.729 184.648 380.073 182.428C379.147 179.261 378.008 176.171 376.965 173.043C376.714 171.71 376.579 170.358 376.213 169.065C375.151 165.338 374.012 161.649 372.912 157.942C372.642 157.073 372.506 156.107 372.024 155.373C371.561 154.698 370.615 153.771 370.055 153.867C369.244 154.002 368.144 154.891 367.951 155.644C367.526 157.362 367.603 159.216 367.468 161.07C366.503 161.765 365.943 161.051 365.326 160.317C362.643 157.227 359.94 154.138 357.238 151.067C356.639 150.391 356.041 149.657 355.327 149.136C353.532 147.862 351.601 148.615 351.215 150.777C350.945 152.226 351.042 153.732 350.964 155.2C350.656 155.2 350.347 155.2 350.019 155.2C348.146 153.037 346.293 150.874 344.421 148.711C343.533 147.668 342.664 146.606 341.738 145.602C340.676 144.463 339.46 143.594 337.8 144.27C336.121 144.965 336.063 146.529 335.985 148.035C335.947 148.827 336.121 149.638 336.024 150.43C335.831 152.091 335.522 153.732 335.213 155.74C334.152 155.315 333.573 155.084 332.993 154.852C330.253 153.771 328.515 154.833 329.036 157.691C329.673 161.225 330.87 164.681 331.816 168.157C331.777 175.283 333.862 181.906 336.777 188.298C339.421 194.13 342.973 199.189 348.783 202.376C350.559 203.36 352.181 204.712 353.667 206.103C356.331 208.613 357.122 211.703 355.694 215.179C354.613 217.824 353.609 220.528 352.296 223.038C347.181 232.771 342.954 242.909 339.344 253.259C337.202 259.381 335.889 265.792 334.21 272.048C334.19 272.551 334.152 273.033 334.132 273.535C334.152 276.026 334.171 278.517 334.19 281.009C334.19 281.742 334.19 282.457 334.171 283.171C332.627 286.84 329.866 289.582 327.01 292.228C324.79 294.294 322.261 294.661 319.424 293.445C313.382 290.838 309.116 286.435 306.22 280.622C306.008 280.043 305.796 279.464 305.583 278.865C305.41 278.228 305.217 277.591 305.043 276.934C304.908 275.351 304.792 273.767 304.657 272.184C304.734 271.295 304.811 270.388 304.889 269.499C304.946 268.997 304.985 268.515 305.043 268.012C305.139 267.588 305.217 267.143 305.313 266.719C305.371 266.217 305.448 265.715 305.506 265.232C305.603 264.788 305.719 264.363 305.815 263.938C305.97 263.339 306.105 262.741 306.259 262.142C306.8 260.153 307.321 258.183 307.861 256.194C308.054 255.596 308.267 254.997 308.46 254.398C311.49 247.06 314.617 239.761 317.532 232.384C319.153 228.29 320.408 224.042 321.836 219.871C321.894 219.35 321.933 218.809 321.991 218.288C322.396 213.769 322.126 213.537 317.86 212.417C313.343 211.239 308.826 209.965 304.406 208.439C300.468 207.068 297.148 204.558 294.175 201.661C292.052 199.595 290.141 197.355 288.037 195.289C274.583 182.138 265.414 166.342 259.334 148.653C258.755 146.954 258.639 145.1 258.311 143.304C258.041 142.86 257.77 142.416 257.5 141.991C256.014 134.576 254.817 127.103 254.624 119.514C255.589 117.447 256.651 115.439 257.481 113.334C258.774 110.032 259.874 106.672 261.071 103.331C262.094 100.473 260.801 98.2718 257.712 98.098C256.033 98.0015 254.296 98.3104 252.636 98.6966C247.385 99.9132 242.174 101.091 236.711 100.184C230.322 99.1408 224.164 97.4221 218.701 93.8883C216.346 92.3627 214.165 90.4124 212.235 88.3461C209.822 85.7778 208.567 82.5916 208.548 78.9805C208.548 77.8411 208.413 76.7018 208.336 75.5625C208.239 74.1142 207.834 72.7624 206.251 72.3762C204.784 72.0093 203.8 72.9748 203.221 74.1335C201.638 77.2811 200.19 80.506 198.684 83.6923C198.24 83.7309 197.777 83.7695 197.333 83.8274C197.024 82.4757 196.715 81.1046 196.407 79.7529C196.329 79.2894 196.271 78.8453 196.194 78.3818C196.271 73.5928 196.349 68.8037 196.426 64.0147C196.426 63.3388 196.6 62.6243 196.503 61.9678C196.252 59.9208 194.399 59.1484 192.758 60.4036C192.218 60.8091 191.813 61.3885 191.388 61.9292C186.08 68.8037 182.258 76.3542 181.37 85.295C179.285 83.1323 178.494 80.4674 177.799 77.8604C177.123 75.2535 176.795 72.55 176.351 70.0203C172.529 69.6341 172.182 69.8465 171.757 72.7817C170.869 78.826 170.328 84.9475 172.471 90.7793C174.112 95.2593 176.486 99.4884 178.648 103.756C179.632 105.687 181.022 107.406 182.045 109.318C183.628 112.291 183.705 115.304 182.316 118.471C180.308 123.009 177.142 126.543 173.34 129.574C170.657 131.718 167.8 133.61 165.039 135.638C163.939 136.449 162.82 137.26 161.797 138.168C158.573 141.026 157.627 145.506 162.202 148.518C164.422 150.797 166.429 153.365 168.919 155.296C179.034 163.136 188.821 171.479 200.306 177.407C203.935 179.28 204.379 181.675 202.024 185.015C200.788 186.773 199.263 188.375 197.719 189.882C193.492 193.975 189.554 194.651 184.304 191.832C181.196 190.171 178.223 188.163 175.444 186C168.282 180.439 160.793 175.399 152.956 170.88C146.625 167.211 140.235 163.638 134.02 159.757C131.858 158.405 130.159 156.281 128.248 154.504C128.692 152.728 129.233 150.99 129.561 149.194C130.545 143.922 132.688 139.191 135.796 134.846C138.71 130.752 141.529 126.581 144.385 122.429C144.907 121.676 145.447 120.923 145.891 120.131C147.223 117.737 146.663 116.038 144.115 114.918C143.169 114.512 142.185 114.222 141.181 113.971C134.541 112.311 130.275 107.927 127.688 101.825C126.569 99.218 125.874 96.418 125.005 93.6952C124.658 92.6138 124.523 91.4165 123.963 90.451C123.558 89.7558 122.554 88.9255 121.917 89.0027C121.087 89.0993 119.89 89.9103 119.678 90.6441C119.157 92.3627 118.906 94.2359 118.964 96.0318C119.06 99.5463 119.446 103.061 119.736 106.826C115.47 106.073 111.011 106.266 106.764 108.197C106.764 107.85 106.726 107.483 106.706 107.135C107.652 106.324 108.694 105.591 109.505 104.664C111.416 102.501 110.605 100.029 107.729 99.7974C105.278 99.5849 102.749 99.7974 100.298 100.145C97.4216 100.55 94.5841 101.323 91.7273 101.922C91.7273 101.516 91.7273 101.091 91.708 100.686C92.6152 99.3532 93.6383 98.098 94.3525 96.6883C94.6806 96.0125 94.6806 94.7766 94.2753 94.2166C93.8506 93.6179 92.7503 93.5214 91.9396 93.2317C91.8431 93.1931 91.708 93.2317 91.6115 93.2703C77.9451 97.5959 66.4599 104.625 61.5956 119.031C58.7387 127.489 59.3178 136.217 61.6921 144.753C63.3521 150.7 65.4175 156.532 67.1162 162.48C67.9269 165.318 68.5446 168.273 68.699 171.208C69.0271 177.137 68.7183 183.065 67.5794 188.916C67.0389 191.697 65.958 194.381 65.128 197.104C60.4181 198.745 57.6771 197.374 56.4803 192.527C56.0556 190.789 56.1135 188.916 55.9591 187.12C55.9591 185.189 55.9977 183.258 56.017 181.327C55.9784 178.797 55.9398 176.287 55.9205 173.757C55.8433 172.85 55.7854 171.942 55.7082 171.034C55.3993 169.258 55.1098 167.481 54.8009 165.705C54.7044 165.222 54.5886 164.72 54.4921 164.218C54.2991 163.58 54.1254 162.943 53.9323 162.306C53.7972 161.823 53.6814 161.321 53.5463 160.838C52.7742 158.444 51.8862 156.088 51.2492 153.655C50.7473 151.782 49.5892 150.7 47.8519 150.16C45.3426 149.387 42.8332 148.615 40.3045 147.881C34.1662 146.104 29.4756 142.455 26.4644 136.835C23.955 132.162 22.4687 127.18 23.0864 121.754C23.0864 121.29 23.0864 120.827 23.0864 120.363L23.0092 120.421ZM30.904 95.8773C26.7925 95.8773 22.6617 95.9545 18.5502 96.0125C18.0869 96.0125 17.6237 96.0511 17.1797 96.1283C15.9057 96.3214 14.6124 96.6111 14.2457 98.0787C13.8017 99.7974 15.0371 100.705 16.2918 101.207C20.3068 102.848 24.3797 104.335 28.4526 105.842C29.6879 106.286 30.8075 105.842 31.4059 104.722C32.7378 102.211 34.2048 99.7201 33.4327 96.3214C32.4483 96.1476 31.6761 95.8773 30.904 95.8773Z" fill="#ED6B23"/>
<path d="M423.91 228.754C424.296 231.477 424.701 234.219 425.106 236.942C425.936 237.54 426.014 238.235 425.319 238.989C425.628 242.658 425.936 246.327 426.245 249.996C426.303 250.343 426.342 250.691 426.4 251.058C426.072 250.749 425.743 250.42 425.396 250.112C422.636 245.38 419.875 240.669 417.115 235.957C416.652 235.184 416.266 234.219 415.571 233.736C414.818 233.215 413.602 232.751 412.868 233.022C412.154 233.292 411.517 234.489 411.401 235.358C411.247 236.44 411.672 237.598 411.826 238.718C412.405 239.858 412.772 241.055 411.961 242.522C411.556 241.306 411.131 240.089 410.726 238.873C410.012 237.328 409.297 235.783 408.564 234.238C407.946 232.944 407.116 231.786 405.533 231.863C403.796 231.94 402.966 233.273 402.599 234.779C401.596 238.873 400.476 242.947 399.839 247.099C399.183 251.463 399.086 255.905 398.623 260.308C398.507 261.466 397.967 262.586 397.619 263.706C398.565 268.032 399.183 272.454 400.553 276.644C403.294 284.987 406.228 293.271 409.471 301.42C412.27 308.43 415.822 315.188 421.188 320.615C424.624 324.091 428.562 327.084 432.326 330.231C437.325 334.383 442.479 338.381 447.42 342.61C449.486 344.367 451.435 344.676 453.231 342.532C455.354 340.003 457.361 337.357 459.214 334.615C465.218 325.771 469.368 316.057 472.765 305.919C475.796 296.863 477.224 287.516 478.402 278.151C479.714 267.684 478.788 257.121 477.456 246.713C476.317 237.714 474.715 228.715 472.032 219.987C471.916 219.601 471.51 219.292 471.24 218.944C469.02 219.176 468.19 220.933 467.708 222.652C466.665 226.379 465.584 230.125 465.083 233.929C464.175 240.842 463.693 247.814 463.017 254.765C463.191 256.407 463.461 258.068 462.013 260.134C461.84 257.739 461.705 255.982 461.569 254.205C460.778 250.092 460.334 245.863 459.137 241.885C457.168 235.358 454.756 228.947 452.42 222.517C451.107 218.867 449.582 215.294 448.154 211.683C447.942 211.162 447.729 210.621 447.478 210.1C446.919 208.903 446.166 207.763 444.679 208.053C443.019 208.362 442.73 209.829 442.73 211.258C442.73 212.514 442.884 213.769 442.942 215.024C443.309 223.231 443.656 231.438 444.004 239.664C444.004 240.128 444.004 240.591 444.004 241.036C444.004 244.009 444.12 246.983 443.946 249.938C443.849 251.483 443.251 253.008 442.768 255.055C441.958 253.394 441.379 252.139 440.742 250.903C436.785 243.044 432.885 235.165 428.793 227.383C427.152 224.255 425.454 224.39 423.852 227.421C423.871 227.866 423.91 228.329 423.929 228.773L423.91 228.754Z" fill="#EEE3DF"/>
<path d="M106.61 107.174C107.556 106.363 108.579 105.629 109.409 104.702C111.32 102.54 110.509 100.068 107.633 99.836C105.182 99.6236 102.653 99.836 100.202 100.184C97.3255 100.589 94.488 101.362 91.6312 101.96C90.3379 101.574 91.1872 101.149 91.5926 100.724C92.4998 99.3919 93.5228 98.1367 94.237 96.727C94.5652 96.0512 94.5652 94.8153 94.1598 94.2553C93.7352 93.6566 92.6349 93.5601 91.8242 93.2704C91.7277 93.2318 91.5926 93.2704 91.496 93.309C77.8296 97.6346 66.3444 104.664 61.4801 119.069C58.6233 127.528 59.2024 136.256 61.5766 144.791C63.2367 150.739 65.3021 156.571 67.0007 162.518C67.8114 165.357 68.4291 168.312 68.5836 171.247C68.9117 177.175 68.6029 183.104 67.464 188.955C66.9235 191.735 65.8426 194.42 65.0125 197.142C66.5568 196.524 68.294 196.158 69.6452 195.211C72.8495 192.991 75.8993 190.48 78.9878 188.105C77.405 188.221 77.5787 187.082 77.5015 186.058C76.9996 179.686 76.4784 173.332 75.8993 166.96C75.5519 163.214 74.9728 159.467 76.3433 155.084C77.1154 157.362 78.0033 159.081 78.2543 160.858C79.3545 168.408 80.2618 175.978 81.2269 183.528C82.0956 182.891 83.1765 182.408 83.7942 181.578C84.6628 180.4 85.3384 179.01 85.7824 177.619C87.8478 171.015 90.3379 164.527 91.1872 157.575C91.6119 154.099 92.7314 150.7 93.6193 147.282C94.9126 142.319 98.2713 138.689 101.688 135.117C102.383 134.383 103.387 133.977 104.236 133.398C105.568 132.51 106.552 132.838 107.382 134.151C108.83 136.468 110.297 138.786 111.861 141.045C114.544 144.926 115.296 145.1 119.562 142.86C121.551 145.68 123.558 148.576 125.623 151.434C126.396 152.516 127.322 153.5 128.171 154.543C128.615 152.767 129.156 151.029 129.484 149.233C130.468 143.961 132.611 139.23 135.719 134.885C138.634 130.791 141.452 126.62 144.309 122.468C144.83 121.715 145.37 120.962 145.814 120.17C147.146 117.776 146.586 116.076 144.038 114.956C143.093 114.551 142.108 114.261 141.104 114.01C134.464 112.349 130.198 107.966 127.612 101.864C126.492 99.2567 125.797 96.4567 124.929 93.7339C124.581 92.6525 124.446 91.4552 123.886 90.4897C123.481 89.7945 122.477 88.9641 121.84 89.0414C121.01 89.1379 119.813 89.949 119.601 90.6828C119.08 92.4014 118.829 94.2746 118.887 96.0705C118.983 99.585 119.369 103.1 119.659 106.865C115.393 106.112 110.934 106.305 106.687 108.236C106.321 108.294 105.973 108.352 105.606 108.391C105.954 107.985 106.301 107.58 106.649 107.155L106.61 107.174Z" fill="#EEE2DE"/>
<path d="M196.097 78.4205C196.175 73.6314 196.252 68.8424 196.329 64.0533C196.329 63.3775 196.503 62.663 196.406 62.0064C196.155 59.9595 194.302 59.1871 192.662 60.4422C192.121 60.8478 191.716 61.4271 191.291 61.9678C185.983 68.8424 182.161 76.3928 181.273 85.3337C179.188 83.1709 178.397 80.506 177.702 77.8991C177.026 75.2921 176.698 72.5886 176.254 70.0589C172.432 69.6727 172.085 69.8852 171.66 72.8204C170.772 78.8646 170.232 84.9861 172.374 90.8179C174.015 95.298 176.389 99.527 178.551 103.795C179.536 105.726 180.925 107.444 181.948 109.356C183.531 112.33 183.609 115.342 182.219 118.509C180.211 123.047 177.046 126.581 173.243 129.613C170.56 131.756 167.703 133.649 164.943 135.677C163.842 136.488 162.723 137.299 161.7 138.206C158.476 141.064 157.53 145.544 162.105 148.557C162.897 148.016 163.611 147.263 164.499 146.954C172.76 144.057 181.118 141.431 189.322 138.341C196.136 135.773 202.776 132.741 209.474 129.864C218.141 126.137 226.403 121.406 235.688 119.205C240.243 118.123 244.818 117.331 249.508 117.119C251.709 117.022 253.079 118.258 254.508 119.591C255.473 117.525 256.535 115.516 257.365 113.411C258.658 110.109 259.758 106.749 260.955 103.408C261.978 100.55 260.685 98.3491 257.596 98.1753C255.917 98.0787 254.18 98.3877 252.52 98.7739C247.269 99.9905 242.058 101.168 236.595 100.261C230.206 99.218 224.048 97.4994 218.585 93.9655C216.23 92.44 214.049 90.4896 212.119 88.4234C209.706 85.8551 208.451 82.6688 208.432 79.0577C208.432 77.9184 208.297 76.7791 208.22 75.6397C208.123 74.1914 207.718 72.8397 206.135 72.4535C204.668 72.0866 203.683 73.0521 203.104 74.2107C201.522 77.3584 200.074 80.5833 198.568 83.7695C198.433 84.4068 198.298 85.0633 198.163 85.7006C197.97 85.7006 197.796 85.6813 197.603 85.662C197.468 85.0633 197.333 84.484 197.217 83.9047C196.908 82.5529 196.599 81.1819 196.291 79.8301C196.213 79.3667 196.155 78.9225 196.078 78.4591L196.097 78.4205Z" fill="#EEE2DE"/>
<path d="M349.961 155.2C348.089 153.037 346.236 150.874 344.363 148.711C343.475 147.668 342.607 146.606 341.68 145.602C340.619 144.463 339.402 143.594 337.742 144.27C336.063 144.965 336.005 146.529 335.928 148.035C335.889 148.827 336.063 149.638 335.967 150.43C335.774 152.091 335.465 153.732 335.156 155.74C334.094 155.316 333.515 155.084 332.936 154.852C330.195 153.771 328.458 154.833 328.979 157.691C329.616 161.225 330.813 164.681 331.759 168.157C332.029 166.863 332.299 165.589 332.608 164.14C334.866 163.947 336.662 165.26 338.592 166.072C339.943 166.651 341.294 167.288 342.607 167.964C343.919 168.64 345.232 168.466 345.946 167.346C346.467 166.516 346.583 165.203 346.371 164.198C346.158 163.059 345.386 162.016 344.865 160.935C345.02 160.703 345.174 160.491 345.328 160.259C346.216 160.471 347.239 160.471 347.992 160.935C353.262 164.063 358.744 166.902 363.261 171.189C364.149 172.039 365.21 172.792 366.33 173.294C368.395 174.201 369.978 173.41 370.461 171.227C370.808 169.683 370.905 168.099 371.136 166.245C373.047 167.616 374.862 168.814 375.537 171.189C375.73 171.884 376.445 172.444 376.927 173.062C376.676 171.73 376.541 170.378 376.174 169.084C375.113 165.357 373.974 161.669 372.874 157.961C372.603 157.092 372.468 156.127 371.986 155.393C371.522 154.717 370.577 153.79 370.017 153.887C369.206 154.022 368.106 154.91 367.913 155.663C367.488 157.382 367.565 159.236 367.43 161.089C366.465 161.785 365.905 161.07 365.288 160.336C362.605 157.247 359.902 154.157 357.2 151.086C356.601 150.411 356.003 149.677 355.289 149.155C353.494 147.881 351.563 148.634 351.177 150.797C350.907 152.245 351.004 153.751 350.926 155.219C350.617 155.219 350.309 155.219 349.98 155.219L349.961 155.2Z" fill="#EFE1DC"/>
<path d="M81.2459 183.509C80.2615 175.939 79.3542 168.389 78.2733 160.838C78.0224 159.042 77.1344 157.343 76.3623 155.064C74.9918 159.448 75.5709 163.194 75.9183 166.94C76.4974 173.294 76.9993 179.666 77.5205 186.039C77.5977 187.062 77.424 188.202 79.0068 188.086C79.7596 186.56 80.5124 185.054 81.2652 183.528L81.2459 183.509Z" fill="#0A111B"/>
<path d="M55.8436 187.139C55.8436 185.208 55.8822 183.277 55.9015 181.346C54.8398 183.258 55.3803 185.189 55.8436 187.139Z" fill="#FBCDB0"/>
<path d="M55.8049 173.777C55.7277 172.869 55.6698 171.961 55.5926 171.054C54.8977 172.019 54.9556 172.927 55.8049 173.777Z" fill="#FBCDB0"/>
<path d="M334.133 281.028C334.133 281.762 334.133 282.476 334.113 283.191C334.905 282.476 335.021 281.742 334.133 281.028Z" fill="#FBD4BB"/>
<path d="M392.967 241.537C392.697 240.823 392.446 240.128 392.176 239.413C391.674 240.398 391.77 241.171 392.967 241.537Z" fill="#F6AD80"/>
<path d="M381.772 190.577C381.694 190.113 381.617 189.669 381.54 189.225C381.617 189.669 381.694 190.133 381.772 190.577Z" fill="#F6A97A"/>
<path d="M382.814 195.308C382.736 194.844 382.659 194.4 382.582 193.956C382.659 194.42 382.736 194.864 382.814 195.308Z" fill="#F6A97A"/>
<path d="M390.072 227.866C389.994 227.402 389.917 226.958 389.859 226.495C389.937 226.958 390.014 227.402 390.072 227.866Z" fill="#F8BA94"/>
<path d="M54.6848 165.724C54.5883 165.241 54.4725 164.739 54.376 164.237C54.4725 164.739 54.5883 165.222 54.6848 165.724Z" fill="#FBCDB0"/>
<path d="M258.234 143.362C257.963 142.918 257.693 142.474 257.423 142.049C257.693 142.493 257.963 142.937 258.234 143.362Z" fill="#F59F6C"/>
<path d="M305.255 266.776C305.313 266.274 305.39 265.772 305.448 265.29C305.39 265.792 305.313 266.294 305.255 266.776Z" fill="#F85E00"/>
<path d="M304.85 269.557C304.908 269.055 304.946 268.572 305.004 268.07C304.965 268.572 304.908 269.055 304.85 269.557Z" fill="#F85E00"/>
<path d="M165.773 4.28683C166.217 4.2289 166.681 4.17097 167.125 4.11304C166.661 4.17097 166.217 4.2289 165.773 4.28683Z" fill="#F6A97A"/>
<path d="M306.162 280.661C305.95 280.082 305.738 279.502 305.525 278.904C305.738 279.483 305.95 280.062 306.162 280.661Z" fill="#F85E00"/>
<path d="M33.4326 96.3213C32.4482 96.1475 31.6761 95.8772 30.904 95.8772C26.7925 95.8772 22.6617 95.9544 18.5501 96.0124C18.0869 96.0124 17.6236 96.051 17.1796 96.1282C15.9057 96.3213 14.6124 96.611 14.2456 98.0786C13.8017 99.7973 15.037 100.705 16.2917 101.207C20.3067 102.848 24.3796 104.335 28.4525 105.841C29.6879 106.286 30.8075 105.841 31.4058 104.721C32.7377 102.211 34.2048 99.72 33.4326 96.3213Z" fill="#EEDFD9"/>
<path d="M461.551 254.186C461.686 255.963 461.821 257.739 461.995 260.114C463.442 258.048 463.153 256.387 462.998 254.746C462.516 254.553 462.033 254.379 461.551 254.186Z" fill="#F49D6A"/>
<path d="M410.707 238.853C411.112 240.07 411.537 241.287 411.942 242.503C412.753 241.036 412.386 239.858 411.807 238.699C411.44 238.757 411.074 238.796 410.688 238.853H410.707Z" fill="#F7B18A"/>
<path d="M425.319 238.989C426.014 238.216 425.917 237.54 425.106 236.942C425.184 237.618 425.261 238.313 425.319 238.989Z" fill="#F7B592"/>
<path d="M197.236 83.8661C197.371 84.4648 197.507 85.0441 197.622 85.6234C197.815 85.6234 197.989 85.6427 198.182 85.662C198.317 85.0248 198.452 84.3682 198.588 83.731C198.144 83.7696 197.68 83.8082 197.236 83.8661Z" fill="#F49D6A"/>
<path d="M106.61 107.174C106.263 107.58 105.934 107.985 105.587 108.41C105.954 108.352 106.301 108.294 106.668 108.255C106.649 107.908 106.629 107.541 106.61 107.193V107.174Z" fill="#F4AB81"/>
<path d="M425.396 250.092C425.725 250.401 426.053 250.729 426.4 251.038C426.342 250.691 426.304 250.343 426.246 249.976C425.956 250.015 425.686 250.054 425.396 250.073V250.092Z" fill="#F3C1A4"/>
<path d="M91.6119 100.705C91.2066 101.13 90.338 101.574 91.6506 101.941C91.6506 101.535 91.6313 101.111 91.6119 100.705Z" fill="#F4AB81"/>
<path d="M55.4374 194.613C55.2637 197.394 56.1323 199.305 58.3522 200.599C60.8615 202.047 61.7109 201.912 64.3553 200.194C66.1698 199.016 67.7333 197.722 68.6213 195.752C68.8915 195.173 69.1424 194.478 69.0652 193.879C68.602 190.635 67.0384 187.97 64.4132 186.039C63.2551 185.189 59.5489 185.788 58.4101 186.831C56.0551 189.013 54.3758 191.465 55.4181 194.632L55.4374 194.613Z" fill="#090F18"/>
<path d="M51.5194 134.73C50.2647 135.136 48.8942 135.387 47.7746 136.024C46.8481 136.546 46.0374 137.376 46.3076 138.805C46.5392 140.021 47.2148 140.369 48.2572 140.717C50.1682 141.335 52.0406 141.972 54.0674 141.393C55.8625 140.388 57.7156 140.234 59.6266 140.968C60.3215 140.717 61.2287 140.678 61.692 140.195C62.6185 139.191 63.9311 137.975 63.9311 136.816C63.9504 135.155 62.0587 135.039 60.6496 134.788C59.7038 134.614 58.758 134.421 57.7928 134.228C55.6888 134.402 53.5848 134.557 51.4808 134.711L51.5194 134.73Z" fill="#0A0E18"/>
<path d="M51.5195 134.73C53.6235 134.576 55.7275 134.402 57.8316 134.248C55.6503 133.437 53.5463 133.572 51.5195 134.73Z" fill="#AC7E84"/>
<path d="M59.6461 140.987C57.7158 140.253 55.8628 140.427 54.0869 141.412C55.94 141.277 57.7931 141.122 59.6461 140.987Z" fill="#3A6870"/>
</g>
<defs>
<clipPath id="clip0_105_153">
<rect width="479" height="344" fill="white"/>
</clipPath>
</defs>
</svg>
