<svg width="120" height="64" viewBox="0 0 120 64" fill="none" xmlns="http://www.w3.org/2000/svg">
<g clip-path="url(#clip0_90_113)">
<path d="M1.5672 46.0465L0 45.2512C0.634816 43.78 1.34898 42.3286 2.16234 40.8971C2.9757 39.4656 4.08663 37.6762 5.49512 35.5091C6.90362 33.3419 7.79633 31.99 8.13358 31.4531C7.5186 30.4988 6.28864 28.6896 4.40403 25.9856C2.51942 23.2817 1.13077 21.1543 0.218218 19.6234L1.74574 18.9275C3.80889 21.3332 6.38783 24.7927 9.48256 29.3059C9.60159 28.8486 10.653 27.2382 12.6566 24.4746C14.6603 21.711 15.791 20.0807 16.0886 19.5637C16.4457 18.9474 16.8821 18.6492 17.3979 18.6492C17.9137 18.6492 18.3105 18.8679 18.7072 19.2854C19.104 19.7029 19.3024 20.2 19.3222 20.7567C19.1833 20.9356 17.9335 22.6653 15.5728 25.9657C13.2121 29.2661 11.7441 31.2543 11.1688 31.9303C11.9821 33.2226 13.5692 35.4494 15.8902 38.6106C18.2113 41.7719 19.6793 43.8794 20.2744 44.9331C20.2744 45.3904 20.1554 45.7483 19.9372 45.9869C19.719 46.2254 19.4016 46.3447 19.0445 46.3447C18.2311 46.3447 17.5963 45.9471 17.1599 45.1518L9.72062 34.0179C8.96677 35.2307 7.65746 37.1791 5.75302 39.8433C3.84857 42.5075 2.47975 44.5951 1.58704 46.0664L1.5672 46.0465Z" fill="#1D1D1B"/>
<path d="M24.9361 42.6865C24.9361 43.104 24.9559 43.6408 25.0155 44.3168C24.7972 45.0723 24.3806 45.4501 23.7458 45.4501C23.3094 45.4501 22.8928 45.2712 22.496 44.9133C22.0993 44.5554 21.8414 44.1379 21.7422 43.621C21.8215 41.6526 21.9009 38.7896 22.0199 34.9922C22.1389 31.1947 22.1985 28.6499 22.258 27.3178L23.9244 27.0195C24.2219 28.5703 24.4005 30.638 24.46 33.2028C24.5195 35.7676 24.6385 37.6961 24.7576 38.9487C25.2138 38.2727 26.5231 36.5032 28.6855 33.6402C30.8478 30.7772 32.296 28.6499 33.0697 27.2382C33.6053 27.1388 33.9426 27.0991 34.0814 27.0991C34.5377 27.0991 34.8551 27.2979 35.0535 27.7154C35.2519 28.1329 35.351 28.9083 35.3907 30.0416L36.0851 45.0326C35.8668 45.7682 35.4502 46.1261 34.8154 46.1261C34.379 46.1261 33.9624 45.9471 33.5656 45.5893C33.1689 45.2314 32.911 44.8139 32.8118 44.2969C32.8316 43.5017 32.911 41.5334 33.0102 38.4119C33.1094 35.2904 33.2085 33.0835 33.2879 31.7713C29.1418 36.5032 26.3644 40.1217 24.9361 42.6467V42.6865Z" fill="#1D1D1B"/>
<path d="M37.9102 29.0078L37.5928 27.3973C40.8462 27.1985 45.9644 26.94 52.9474 26.6021C53.5227 26.6219 54.0186 26.8406 54.4352 27.2582C54.8518 27.6757 55.0502 28.1131 55.0502 28.5704C55.0502 29.306 54.5741 29.7036 53.602 29.803L46.8174 29.4849C46.9365 31.3141 46.996 33.9584 47.0158 37.4377C47.0357 40.9171 47.0753 43.4619 47.1348 45.0525C46.9166 45.7484 46.4802 46.1062 45.8454 46.1062C45.4288 46.1062 45.032 45.9273 44.6353 45.5893C44.2385 45.2513 44.0004 44.8338 43.9013 44.3566C44.2385 38.392 44.5956 33.3818 44.9527 29.3259L37.9102 29.0078Z" fill="#1D1D1B"/>
<path d="M71.1395 42.1895L71.4965 43.7999C70.4253 44.1975 68.8581 44.6151 66.7553 45.0922C64.6524 45.5694 63.1051 45.808 62.0933 45.808C61.0816 45.808 60.1492 45.47 59.3755 44.7741C58.6019 44.0782 58.0265 43.2034 57.6298 42.1099C57.233 41.0164 56.9553 39.9627 56.7768 38.9089C56.5982 37.8552 56.499 36.8213 56.499 35.8073C56.499 29.7434 59.2367 26.7014 64.7119 26.7014C66.0213 26.7014 67.1719 27.1189 68.1638 27.954C69.1557 28.789 69.6516 29.8825 69.6516 31.2146C69.6516 31.9503 69.4532 32.5865 69.0565 33.1432C68.6597 33.6999 68.1638 34.1373 67.6083 34.4753C67.0528 34.8133 66.3188 35.0916 65.4261 35.3699C64.5334 35.6483 63.7597 35.8272 63.0852 35.9465C62.4107 36.0658 61.5974 36.205 60.6452 36.3442C59.6929 36.4833 59.0383 36.6026 58.6812 36.6623C58.701 37.3581 58.7407 37.9944 58.8002 38.5113C58.8597 39.0282 58.9788 39.6247 59.1573 40.241C59.3359 40.8574 59.5739 41.3743 59.8913 41.7719C60.2087 42.1696 60.6055 42.5076 61.1411 42.766C61.6767 43.0245 62.3116 43.1637 63.0257 43.1637C63.8986 43.1637 64.9698 43.0841 66.2196 42.9251C67.4694 42.766 68.6002 42.607 69.5723 42.428C70.5443 42.2491 71.0601 42.1696 71.1196 42.1696L71.1395 42.1895ZM58.8201 34.3957C62.1132 33.4414 64.8111 32.4473 66.914 31.4134C66.7354 30.6182 66.5172 30.0217 66.2196 29.6638C65.9221 29.306 65.4856 29.127 64.9103 29.127C63.4423 29.127 62.0933 29.6439 60.9031 30.6579C59.7128 31.6719 59.0184 32.9245 58.8201 34.4156V34.3957Z" fill="#EB6016"/>
<path d="M73.3804 26.5623L75.4039 26.9201C75.4039 27.4371 75.4039 27.8148 75.4436 28.0534C76.7727 27.1985 78.1217 26.781 79.4707 26.781C81.6727 26.781 83.3986 27.7353 84.6285 29.6241C85.8585 31.5129 86.4735 33.6601 86.4735 36.0658C86.4735 37.2786 86.3743 38.4318 86.1958 39.5452C86.0172 40.6586 85.6998 41.7719 85.2237 42.9251C84.7476 44.0783 84.0532 44.9928 83.101 45.6887C82.1488 46.3846 80.9982 46.7226 79.6294 46.7226C78.3399 46.7226 77.11 46.3846 75.9197 45.7086C75.9593 47.8359 76.0189 49.685 76.0585 51.2556C76.0784 52.031 76.0982 52.6871 76.118 53.4029C76.1379 54.1186 76.1577 54.735 76.1776 55.1525C76.1577 55.2519 76.0189 55.8484 75.5031 56.1466C75.3245 56.246 75.1261 56.2858 74.9079 56.2858C74.4715 56.2858 74.0549 56.1068 73.6581 55.749C73.4002 55.5303 73.2415 55.2718 73.2019 55.232C73.1622 55.1724 73.1225 55.1127 73.1225 55.0929C73.0035 54.8543 72.944 54.6356 72.9043 54.4765C72.9043 53.8801 72.9043 53.5818 72.9043 53.4427C72.9043 53.2637 72.9043 53.1444 72.9043 53.1444C72.9043 53.045 73.0233 45.7285 73.3209 26.5821L73.3804 26.5623ZM75.7411 30.4591L75.8403 42.1895C76.1379 42.766 76.5743 43.2432 77.1893 43.5812C77.8043 43.9391 78.4589 44.0981 79.1929 44.0981C80.1452 44.0981 80.9387 43.7999 81.6132 43.1836C82.2877 42.5672 82.7439 41.7719 83.0217 40.7779C83.2994 39.7639 83.4978 38.8294 83.597 37.9546C83.6962 37.0798 83.7557 36.1652 83.7557 35.191C83.7557 31.0755 82.367 29.0276 79.5897 29.0276C78.697 29.0276 77.8638 29.1469 77.1099 29.4054C76.3561 29.6638 75.8998 30.0018 75.7411 30.4392V30.4591Z" fill="#1D1D1B"/>
<path d="M62.9259 24.6138C62.9259 24.6138 62.9854 24.1764 62.787 23.8583C62.5886 23.5402 61.6959 21.7906 61.6959 21.7906L61.2 20.8561C61.2 20.8561 61.0016 20.7766 60.7635 20.9158C60.5255 21.0549 60.0494 21.3929 59.8708 21.6912C59.6923 21.9894 58.621 23.5004 58.5615 25.8266C58.9781 25.5085 59.6923 25.0711 60.6842 24.7927C61.6166 24.5343 62.4299 24.5542 62.9259 24.6138Z" fill="#EB6016"/>
<path d="M65.0679 24.6138C65.0679 24.6138 65.0084 24.1764 65.2068 23.8583C65.4052 23.5402 66.2979 21.7906 66.2979 21.7906L66.7938 20.8561C66.7938 20.8561 66.9922 20.7766 67.2303 20.9158C67.4683 21.0549 67.9444 21.3929 68.123 21.6912C68.3015 21.9894 69.3728 23.5004 69.4323 25.8266C69.0157 25.5085 68.3015 25.0711 67.3096 24.7927C66.3772 24.5343 65.5639 24.5542 65.0679 24.6138Z" fill="#EB6016"/>
<path d="M76.0196 57.4389C80.0665 62.6082 87.9819 62.7076 93.6754 60.4212C110.934 53.3631 116.628 29.3457 104.17 15.5079C88.3588 -2.64435 49.8136 6.42182 31.3643 17.1978C50.4286 2.52496 90.4418 -9.10598 110.062 9.94093C128.471 28.6896 120.139 57.6377 94.5284 63.324C87.6248 64.7952 79.6301 64.1988 74.5119 58.7312L76.0196 57.4588V57.4389Z" fill="#EB6016"/>
</g>
<defs>
<clipPath id="clip0_90_113">
<rect width="120" height="64" fill="white"/>
</clipPath>
</defs>
</svg>
