<svg width="86" height="86" viewBox="0 0 86 86" fill="none" xmlns="http://www.w3.org/2000/svg">
<path d="M6.64219 79.0451H16.8422V24.6451H6.64219V79.0451ZM18.5422 82.4451H4.94219C4.49132 82.4451 4.05892 82.266 3.74011 81.9472C3.42129 81.6284 3.24219 81.196 3.24219 80.7451V22.9451C3.24219 22.4942 3.42129 22.0618 3.74011 21.743C4.05892 21.4242 4.49132 21.2451 4.94219 21.2451H18.5422C18.9931 21.2451 19.4255 21.4242 19.7443 21.743C20.0631 22.0618 20.2422 22.4942 20.2422 22.9451V80.7451C20.2422 81.196 20.0631 81.6284 19.7443 81.9472C19.4255 82.266 18.9931 82.4451 18.5422 82.4451Z" fill="#F85E00"/>
<path d="M20.2438 79.0451H33.8438V7.64512H20.2438V79.0451ZM35.5438 82.4451H18.5438C18.0929 82.4451 17.6605 82.266 17.3417 81.9472C17.0229 81.6284 16.8438 81.196 16.8438 80.7451V5.94512C16.8438 5.49425 17.0229 5.06185 17.3417 4.74304C17.6605 4.42422 18.0929 4.24512 18.5438 4.24512H35.5438C35.9946 4.24512 36.427 4.42422 36.7458 4.74304C37.0646 5.06185 37.2437 5.49425 37.2437 5.94512V80.7451C37.2437 81.196 37.0646 81.6284 36.7458 81.9472C36.427 82.266 35.9946 82.4451 35.5438 82.4451Z" fill="#F85E00"/>
<path d="M37.2437 79.0451H47.4438V17.8451H37.2437V79.0451ZM49.1437 82.4451H35.5438C35.0929 82.4451 34.6605 82.266 34.3417 81.9472C34.0229 81.6283 33.8438 81.1959 33.8438 80.7451V16.1451C33.8438 15.6942 34.0229 15.2618 34.3417 14.943C34.6605 14.6242 35.0929 14.4451 35.5438 14.4451H49.1437C49.5946 14.4451 50.027 14.6242 50.3458 14.943C50.6646 15.2618 50.8438 15.6942 50.8438 16.1451V80.7451C50.8438 81.1959 50.6646 81.6283 50.3458 81.9472C50.027 82.266 49.5946 82.4451 49.1437 82.4451Z" fill="#F85E00"/>
<path d="M51.302 23.9523L70.5672 78.5436L80.9797 74.6378L61.7145 20.0466L51.302 23.9523ZM69.543 82.4451C69.1921 82.4439 68.8502 82.3348 68.5635 82.1326C68.2769 81.9303 68.0594 81.6447 67.9407 81.3146L47.5407 23.5146C47.392 23.095 47.4137 22.6339 47.6012 22.2302C47.7888 21.8265 48.1272 21.5125 48.5437 21.3556L62.1437 16.2556C62.3553 16.1759 62.5807 16.1393 62.8067 16.1478C63.0326 16.1564 63.2546 16.2099 63.4596 16.3053C63.6646 16.4007 63.8485 16.536 64.0006 16.7033C64.1527 16.8707 64.2698 17.0666 64.3452 17.2798L84.7452 75.0798C84.8927 75.4988 84.8703 75.9589 84.6828 76.3616C84.4954 76.7643 84.1578 77.0776 83.7422 77.2346L70.1422 82.3346C69.9506 82.4067 69.7477 82.4441 69.543 82.4451ZM30.443 75.6451H23.643C23.1921 75.6451 22.7597 75.466 22.4409 75.1471C22.1221 74.8283 21.943 74.3959 21.943 73.9451C21.943 73.4942 22.1221 73.0618 22.4409 72.743C22.7597 72.4242 23.1921 72.2451 23.643 72.2451H30.443C30.8938 72.2451 31.3262 72.4242 31.6451 72.743C31.9639 73.0618 32.143 73.4942 32.143 73.9451C32.143 74.3959 31.9639 74.8283 31.6451 75.1471C31.3262 75.466 30.8938 75.6451 30.443 75.6451ZM30.443 68.8451H23.643C23.1921 68.8451 22.7597 68.666 22.4409 68.3471C22.1221 68.0283 21.943 67.5959 21.943 67.1451C21.943 66.6942 22.1221 66.2618 22.4409 65.943C22.7597 65.6242 23.1921 65.4451 23.643 65.4451H30.443C30.8938 65.4451 31.3262 65.6242 31.6451 65.943C31.9639 66.2618 32.143 66.6942 32.143 67.1451C32.143 67.5959 31.9639 68.0283 31.6451 68.3471C31.3262 68.666 30.8938 68.8451 30.443 68.8451ZM28.743 58.6451C28.2921 58.6451 27.8597 58.466 27.5409 58.1471C27.2221 57.8283 27.043 57.3959 27.043 56.9451V16.1451C27.043 15.6942 27.2221 15.2618 27.5409 14.943C27.8597 14.6242 28.2921 14.4451 28.743 14.4451C29.1938 14.4451 29.6262 14.6242 29.9451 14.943C30.2639 15.2618 30.443 15.6942 30.443 16.1451V56.9451C30.443 57.3959 30.2639 57.8283 29.9451 58.1471C29.6262 58.466 29.1938 58.6451 28.743 58.6451ZM11.743 75.6451C11.2921 75.6451 10.8597 75.466 10.5409 75.1471C10.2221 74.8283 10.043 74.3959 10.043 73.9451V56.9451C10.043 56.4942 10.2221 56.0618 10.5409 55.743C10.8597 55.4242 11.2921 55.2451 11.743 55.2451C12.1938 55.2451 12.6262 55.4242 12.9451 55.743C13.2639 56.0618 13.443 56.4942 13.443 56.9451V73.9451C13.443 74.3959 13.2639 74.8283 12.9451 75.1471C12.6262 75.466 12.1938 75.6451 11.743 75.6451ZM11.743 51.8451C11.2921 51.8451 10.8597 51.666 10.5409 51.3471C10.2221 51.0283 10.043 50.5959 10.043 50.1451V46.7451C10.043 46.2942 10.2221 45.8618 10.5409 45.543C10.8597 45.2242 11.2921 45.0451 11.743 45.0451C12.1938 45.0451 12.6262 45.2242 12.9451 45.543C13.2639 45.8618 13.443 46.2942 13.443 46.7451V50.1451C13.443 50.5959 13.2639 51.0283 12.9451 51.3471C12.6262 51.666 12.1938 51.8451 11.743 51.8451ZM44.043 75.6451H40.643C40.1921 75.6451 39.7597 75.466 39.4409 75.1471C39.1221 74.8283 38.943 74.3959 38.943 73.9451C38.943 73.4942 39.1221 73.0618 39.4409 72.743C39.7597 72.4242 40.1921 72.2451 40.643 72.2451H44.043C44.4938 72.2451 44.9262 72.4242 45.245 72.743C45.5639 73.0618 45.743 73.4942 45.743 73.9451C45.743 74.3959 45.5639 74.8283 45.245 75.1471C44.9262 75.466 44.4938 75.6451 44.043 75.6451ZM42.343 68.8451C41.8921 68.8451 41.4597 68.666 41.1409 68.3471C40.8221 68.0283 40.643 67.5959 40.643 67.1451V43.3451C40.643 42.8942 40.8221 42.4618 41.1409 42.143C41.4597 41.8242 41.8921 41.6451 42.343 41.6451C42.7938 41.6451 43.2262 41.8242 43.5451 42.143C43.8639 42.4618 44.043 42.8942 44.043 43.3451V67.1451C44.043 67.5959 43.8639 68.0283 43.5451 68.3471C43.2262 68.666 42.7938 68.8451 42.343 68.8451Z" fill="#F85E00"/>
<path d="M71.2436 63.745C70.8987 63.745 70.5619 63.6402 70.278 63.4443C69.9941 63.2485 69.7765 62.9709 69.6541 62.6485L56.0541 26.9485C55.9748 26.7398 55.9375 26.5174 55.9441 26.2943C55.9508 26.0711 56.0013 25.8514 56.0929 25.6478C56.1844 25.4441 56.3152 25.2605 56.4777 25.1074C56.6403 24.9543 56.8313 24.8347 57.0401 24.7555C57.2488 24.6762 57.4711 24.6389 57.6943 24.6455C57.9175 24.6522 58.1371 24.7027 58.3408 24.7943C58.5444 24.8859 58.728 25.0166 58.8811 25.1792C59.0342 25.3417 59.1538 25.5328 59.2331 25.7415L72.8331 61.4415C72.9308 61.6989 72.9646 61.9761 72.9315 62.2494C72.8984 62.5227 72.7994 62.7839 72.643 63.0105C72.4867 63.2371 72.2776 63.4223 72.0338 63.5503C71.7901 63.6782 71.5189 63.745 71.2436 63.745Z" fill="#F85E00"/>
</svg>
