<svg width="86" height="86" viewBox="0 0 86 86" fill="none" xmlns="http://www.w3.org/2000/svg">
<g clip-path="url(#clip0_147_1193)">
<path d="M84.6902 62.5917C85.1577 62.0605 85.4243 59.7751 83.338 59.6013H13.3791C9.95684 59.6054 6.67592 60.9667 4.25601 63.3866C1.8361 65.8065 0.474793 69.0874 0.470703 72.5097C0.474793 75.9319 1.8361 79.2129 4.25601 81.6328C6.67592 84.0527 9.95684 85.414 13.3791 85.4181H83.338C85.8049 85.1399 85.1519 82.9357 84.6709 82.4083C78.6514 75.7513 78.6572 69.4574 84.6902 62.5917ZM79.6231 81.8133H13.381C10.9138 81.8113 8.54821 80.8305 6.80327 79.0863C5.05833 77.3421 4.07661 74.9769 4.07354 72.5097C4.07661 70.0426 5.058 67.6775 6.80247 65.933C8.54694 64.1886 10.9121 63.2072 13.3791 63.2041H79.6752C75.5025 69.4555 75.4871 75.6914 79.625 81.8153L79.6231 81.8133ZM2.25763 55.9984H72.2165C75.6388 55.9943 78.9197 54.633 81.3396 52.2131C83.7595 49.7932 85.1208 46.5123 85.1249 43.09C85.1208 39.6678 83.7595 36.3868 81.3396 33.9669C78.9197 31.547 75.6388 30.1857 72.2165 30.1816H33.0798V26.5788H83.338C85.8049 26.3006 85.1519 24.0983 84.6709 23.569C78.6514 16.9139 78.6572 10.6181 84.6902 3.75242C85.1577 3.22117 85.4243 0.935827 83.338 0.761963H13.3791C9.95651 0.766054 6.67529 2.12762 4.25532 4.54795C1.83536 6.96828 0.474282 10.2497 0.470703 13.6723C0.475304 17.0942 1.83683 20.3747 4.25669 22.7942C6.67654 25.2137 9.95718 26.5747 13.3791 26.5788H15.6818V30.1816H2.25763C0.171271 30.3555 0.437862 32.6408 0.905362 33.1721C6.93843 40.0378 6.94423 46.3335 0.92468 52.9887C0.445589 53.516 -0.209297 55.7203 2.25763 55.9984ZM13.3791 22.9759C10.9122 22.9734 8.54711 21.9924 6.80259 20.2483C5.05806 18.5041 4.07661 16.1392 4.07354 13.6723C4.0761 11.2049 5.05726 8.8393 6.80179 7.09441C8.54631 5.34953 10.9117 4.36787 13.3791 4.3648H79.6752C75.5025 10.6162 75.4871 16.854 79.625 22.9779H33.0798V13.6704C33.0798 13.4338 33.0332 13.1995 32.9426 12.9809C32.852 12.7624 32.7192 12.5638 32.5518 12.3966C32.3844 12.2294 32.1857 12.0968 31.967 12.0064C31.7483 11.916 31.514 11.8697 31.2774 11.8699H17.4842C17.2476 11.8697 17.0133 11.916 16.7946 12.0064C16.576 12.0968 16.3773 12.2294 16.2099 12.3966C16.0425 12.5638 15.9097 12.7624 15.8191 12.9809C15.7285 13.1995 15.6818 13.4338 15.6818 13.6704V22.9759H13.3791ZM29.477 15.4728V37.9784L25.4916 34.8586C25.1742 34.611 24.7833 34.4766 24.3808 34.4766C23.9783 34.4766 23.5874 34.611 23.27 34.8586L19.2847 37.9804V15.4728H29.477ZM15.6818 33.7845V41.6798C15.5775 43.2465 16.7695 44.7823 18.595 43.0958L24.3808 38.5638L30.1666 43.0958C32.0617 44.6335 33.2247 43.1866 33.0798 41.6798V33.7845H72.2165C74.6835 33.7875 77.0487 34.7689 78.7931 36.5134C80.5376 38.2579 81.519 40.623 81.5221 43.09C81.5195 45.5572 80.5383 47.9227 78.7937 49.6672C77.0491 51.4118 74.6837 52.393 72.2165 52.3956H5.97252C10.1124 46.2717 10.0931 40.0358 5.92229 33.7845H15.6818Z" fill="#F85E00"/>
</g>
<defs>
<clipPath id="clip0_147_1193">
<rect width="85" height="85" fill="white" transform="translate(0.470703 0.590088)"/>
</clipPath>
</defs>
</svg>
