<svg width="85" height="86" viewBox="0 0 85 86" fill="none" xmlns="http://www.w3.org/2000/svg">
<g clip-path="url(#clip0_147_1164)">
<path d="M77.1579 8.72884C76.5842 8.05303 75.8703 7.5102 75.0658 7.13804C74.2612 6.76588 73.3853 6.57332 72.4988 6.57373H66.602V4.7303C66.601 3.63253 66.1645 2.58 65.3883 1.80376C64.612 1.02753 63.5595 0.591026 62.4617 0.590088L22.471 0.590088C21.3733 0.591026 20.3207 1.02753 19.5445 1.80376C18.7682 2.58 18.3317 3.63253 18.3308 4.7303V6.57373H12.4339C11.5472 6.57307 10.6709 6.7655 9.86603 7.13767C9.06115 7.50983 8.34696 8.0528 7.7731 8.72884C7.20439 9.3949 6.78752 10.1768 6.55144 11.0202C6.31536 11.8636 6.26574 12.7483 6.40602 13.6128C7.9555 23.1399 13.9533 31.5584 22.4622 36.175C23.2413 38.045 24.1214 39.8158 25.1007 41.4662C28.2351 46.7362 32.1291 50.3806 36.4163 52.1408C36.8484 56.5325 33.9265 60.6939 29.5242 61.6856L29.4995 61.6945C29.0731 61.7966 28.6936 62.0392 28.4218 62.3832C28.1501 62.7272 28.002 63.1526 28.0013 63.591V72.5532H24.3764C22.8226 72.5551 21.333 73.1733 20.2345 74.2722C19.1359 75.3711 18.5182 76.8609 18.5167 78.4147V83.0383C18.5167 84.1185 19.3915 84.9915 20.47 84.9915H64.647C65.7272 84.9915 66.6002 84.1185 66.6002 83.0383V78.4129C66.5983 76.8594 65.9804 75.37 64.8819 74.2715C63.7834 73.173 62.294 72.5551 60.7405 72.5532H57.1156V63.5928C57.1156 62.6684 56.4746 61.8963 55.6122 61.6927L55.5891 61.6856C51.155 60.6886 48.226 56.4847 48.7059 52.0594C52.9187 50.2708 56.7455 46.6583 59.8303 41.4662C60.8339 39.7671 61.7156 37.9989 62.4688 36.175C70.9795 31.5584 76.9755 23.1417 78.525 13.6128C78.6653 12.7483 78.6156 11.8636 78.3796 11.0202C78.1435 10.1768 77.7266 9.3949 77.1579 8.72884ZM10.2629 12.9859C10.162 12.3608 10.3337 11.7481 10.7481 11.2594C11.1696 10.7635 11.784 10.4802 12.4322 10.4802H18.329V14.075C18.329 19.7098 19.0498 25.1693 20.4133 30.1612C15.0565 25.9289 11.3679 19.7806 10.2629 12.9859ZM60.7405 76.4597C61.8172 76.4597 62.6937 77.3362 62.6937 78.4147V81.0851H22.425V78.4147C22.425 77.3362 23.2998 76.4597 24.3764 76.4597H60.7405ZM53.2091 65.546V72.5532H31.9078V65.546H53.2091ZM37.0308 61.6378C37.5142 61.1065 37.9552 60.531 38.3501 59.9148C39.6372 57.9124 40.3361 55.5888 40.3671 53.2086C41.8222 53.4103 43.2988 53.4019 44.7516 53.1838C44.8025 56.3163 45.9952 59.3224 48.1056 61.6378H37.0308ZM62.6937 14.075C62.6937 23.6995 60.4837 32.7183 56.471 39.4687C52.6478 45.9039 47.6735 49.4474 42.4673 49.4474C37.2575 49.4474 32.285 45.9057 28.46 39.4705C24.4473 32.7183 22.2373 23.6995 22.2373 14.0768V4.7303C22.2373 4.60103 22.3417 4.49655 22.4692 4.49655H62.46C62.5892 4.49655 62.6937 4.6028 62.6937 4.7303V14.075ZM74.6681 12.9859C73.5631 19.7788 69.8762 25.9272 64.5195 30.1612C65.883 25.1675 66.6002 19.7098 66.6002 14.075V10.4802H72.4971C73.147 10.4802 73.7614 10.7635 74.1811 11.2594C74.5973 11.7481 74.769 12.3608 74.6681 12.9859Z" fill="#F85E00"/>
<path d="M54.324 20.6448C54.2112 20.2985 54.0039 19.9906 53.7254 19.7559C53.4469 19.5212 53.1083 19.3691 52.7479 19.3166L46.8511 18.4595L44.2161 13.1187C44.0547 12.792 43.8052 12.5169 43.4957 12.3246C43.1862 12.1322 42.8291 12.0303 42.4647 12.0303C42.1003 12.0303 41.7432 12.1322 41.4337 12.3246C41.1242 12.5169 40.8747 12.792 40.7134 13.1187L38.0766 18.4595L32.1815 19.3166C31.8211 19.3695 31.4827 19.522 31.2045 19.7571C30.9263 19.9921 30.7193 20.3002 30.607 20.6466C30.4946 20.9931 30.4814 21.364 30.5687 21.7176C30.6561 22.0712 30.8405 22.3933 31.1013 22.6476L35.3654 26.8055L34.3578 32.6758C34.2962 33.0349 34.3363 33.4042 34.4736 33.7417C34.6108 34.0793 34.8398 34.3717 35.1345 34.586C35.4293 34.8002 35.7781 34.9278 36.1415 34.9541C36.505 34.9805 36.8686 34.9047 37.1912 34.7353L42.4647 31.9639L47.7365 34.7353C48.059 34.9054 48.4228 34.9818 48.7865 34.9558C49.1503 34.9297 49.4995 34.8022 49.7944 34.5878C50.0894 34.3734 50.3184 34.0806 50.4555 33.7426C50.5925 33.4047 50.6321 33.0351 50.5698 32.6758L49.564 26.8055L53.8299 22.6476C54.3612 22.1287 54.5542 21.3531 54.3257 20.6465L54.324 20.6448ZM46.102 24.7248C45.875 24.9455 45.7052 25.2183 45.6074 25.5194C45.5096 25.8206 45.4867 26.1411 45.5406 26.4531L46.0506 29.4352L43.3731 28.0274C43.0931 27.8799 42.7813 27.8028 42.4647 27.8028C42.1482 27.8028 41.8364 27.8799 41.5563 28.0274L38.877 29.4352L39.3905 26.4531C39.4438 26.1409 39.4204 25.8205 39.3223 25.5194C39.2242 25.2183 39.0544 24.9456 38.8274 24.7248L36.6617 22.6121L39.6544 22.1783C40.2919 22.0862 40.8409 21.686 41.1242 21.1087L42.4647 18.3958L43.8035 21.1087C44.0868 21.686 44.6375 22.0844 45.2732 22.1783L48.2677 22.6121L46.102 24.7248Z" fill="#F85E00"/>
</g>
<defs>
<clipPath id="clip0_147_1164">
<rect width="85" height="85" fill="white" transform="translate(0 0.590088)"/>
</clipPath>
</defs>
</svg>
