<svg width="86" height="86" viewBox="0 0 86 86" fill="none" xmlns="http://www.w3.org/2000/svg">
<g clip-path="url(#clip0_147_1177)">
<path d="M57.9175 10.3687L60.1895 6.54897C60.3095 6.33011 60.4719 6.13737 60.6672 5.98202C60.8625 5.82667 61.0869 5.71183 61.3271 5.64422C61.5674 5.57662 61.8187 5.5576 62.0664 5.58829C62.3141 5.61897 62.5531 5.69874 62.7696 5.82293C63.6958 6.34001 64.0092 7.47512 63.4957 8.40304L61.2219 12.2227C60.9156 12.8425 60.1895 13.1489 59.5697 13.1489C59.2634 13.1489 58.9499 13.0426 58.6436 12.9381C57.7068 12.4317 57.4022 11.3037 57.9175 10.3687ZM24.5019 12.2316C24.8065 12.8514 25.5325 13.1577 26.1541 13.1577C26.4587 13.1577 26.7739 13.0532 27.0803 12.9488C27.2989 12.8288 27.4914 12.6665 27.6466 12.4713C27.8018 12.2761 27.9165 12.0519 27.9841 11.8119C28.0517 11.5719 28.0708 11.3208 28.0403 11.0733C28.0097 10.8258 27.9302 10.5868 27.8063 10.3704L25.5325 6.54897C25.4126 6.33035 25.2503 6.13781 25.0551 5.98262C24.8599 5.82742 24.6357 5.71268 24.3957 5.64509C24.1556 5.57749 23.9045 5.55841 23.657 5.58894C23.4096 5.61948 23.1706 5.69902 22.9542 5.82293C22.7353 5.94288 22.5426 6.10527 22.3873 6.30061C22.2319 6.49594 22.1171 6.72029 22.0495 6.96054C21.9819 7.20079 21.9628 7.4521 21.9935 7.69979C22.0242 7.94747 22.104 8.18655 22.2282 8.40304L24.5019 12.2316ZM42.8566 8.72533C43.1001 8.72674 43.3414 8.67984 43.5667 8.58737C43.7919 8.49489 43.9966 8.35866 44.1689 8.18657C44.3411 8.01448 44.4776 7.80993 44.5703 7.58477C44.6629 7.35961 44.7101 7.1183 44.7089 6.87481V2.44241C44.7103 2.19892 44.6634 1.95757 44.5709 1.73232C44.4785 1.50707 44.3422 1.30239 44.1701 1.13013C43.998 0.957873 43.7935 0.821451 43.5683 0.728758C43.3432 0.636066 43.1019 0.588944 42.8584 0.590119C42.6147 0.588709 42.3732 0.635658 42.1479 0.728245C41.9225 0.820832 41.7177 0.957217 41.5455 1.1295C41.3732 1.30178 41.2368 1.50654 41.1442 1.7319C41.0516 1.95727 41.0047 2.19877 41.0061 2.44241V6.87658C40.8998 7.89835 41.7215 8.72887 42.8584 8.72887L42.8566 8.72533ZM9.44098 38.3248H5.00858C4.76509 38.3234 4.52374 38.3703 4.29849 38.4628C4.07324 38.5552 3.86856 38.6915 3.69631 38.8636C3.52405 39.0357 3.38762 39.2402 3.29493 39.4654C3.20224 39.6905 3.15512 39.9318 3.15629 40.1753C3.15465 40.4191 3.20142 40.6608 3.2939 40.8864C3.38639 41.1119 3.52273 41.3169 3.69504 41.4894C3.86735 41.6619 4.07218 41.7984 4.29766 41.8911C4.52315 41.9838 4.76479 42.0308 5.00858 42.0294H9.44275C9.68654 42.0308 9.92818 41.9838 10.1537 41.8911C10.3792 41.7984 10.584 41.6619 10.7563 41.4894C10.9286 41.3169 11.0649 41.1119 11.1574 40.8864C11.2499 40.6608 11.2967 40.4191 11.295 40.1753C11.2965 39.9317 11.2495 39.6902 11.1569 39.4648C11.0643 39.2395 10.9279 39.0347 10.7557 38.8624C10.5834 38.6901 10.3786 38.5537 10.1533 38.4612C9.92789 38.3686 9.68639 38.3216 9.44275 38.323L9.44098 38.3248ZM80.7135 38.3248H76.2829C76.0392 38.3234 75.7977 38.3703 75.5723 38.4629C75.347 38.5555 75.1422 38.6919 74.9699 38.8642C74.7977 39.0365 74.6613 39.2412 74.5687 39.4666C74.4761 39.692 74.4292 39.9335 74.4306 40.1771C74.4289 40.4209 74.4757 40.6626 74.5682 40.8881C74.6607 41.1137 74.797 41.3187 74.9693 41.4912C75.1416 41.6636 75.3465 41.8002 75.5719 41.8929C75.7974 41.9856 76.0391 42.0326 76.2829 42.0312H80.7135C80.9573 42.0326 81.1989 41.9856 81.4244 41.8929C81.6499 41.8002 81.8547 41.6636 82.027 41.4912C82.1993 41.3187 82.3357 41.1137 82.4282 40.8881C82.5206 40.6626 82.5674 40.4209 82.5658 40.1771C82.5672 39.9335 82.5202 39.692 82.4276 39.4666C82.3351 39.2412 82.1987 39.0365 82.0264 38.8642C81.8541 38.6919 81.6494 38.5555 81.424 38.4629C81.1986 38.3703 80.9571 38.3234 80.7135 38.3248ZM77.3046 20.3792C77.1847 20.1606 77.0224 19.968 76.8272 19.8128C76.632 19.6576 76.4078 19.5429 76.1678 19.4753C75.9277 19.4077 75.6766 19.3886 75.4291 19.4192C75.1816 19.4497 74.9427 19.5292 74.7263 19.6531L70.9048 21.9269C70.6862 22.0468 70.4937 22.2092 70.3385 22.4044C70.1833 22.5996 70.0685 22.8237 70.0009 23.0638C69.9334 23.3038 69.9143 23.5549 69.9448 23.8024C69.9753 24.0499 70.0549 24.2888 70.1788 24.5052C70.4851 25.125 71.2112 25.4314 71.8328 25.4314C72.1373 25.4314 72.4525 25.3269 72.7589 25.2224L76.5786 22.9487C77.5136 22.4422 77.8199 21.3053 77.3046 20.3792ZM67.2002 39.977C67.2002 44.2093 66.0634 48.3336 64.0004 52.0488C63.9228 52.3199 63.782 52.5687 63.5895 52.7748L63.3806 53.0794C62.5589 54.3207 61.7284 55.5532 60.696 56.5856C57.087 61.6378 55.233 65.9728 55.3304 68.7513V68.8575C55.3304 69.0682 55.4348 69.3728 55.4348 69.6792V78.5511C55.4348 82.4664 52.2349 85.56 48.4241 85.56H36.9845C35.126 85.5577 33.3443 84.8186 32.0298 83.5048C30.7153 82.1909 29.9753 80.4096 29.972 78.5511V68.753C30.0783 66.0685 28.2154 61.8379 24.8171 56.8902C23.6803 55.6506 22.5434 54.3119 21.7217 52.7642C21.6155 52.5552 21.5128 52.4596 21.4171 52.2506C19.2607 48.5564 18.1207 44.3572 18.1128 40.0797C18.1128 26.5647 29.1521 15.536 42.6565 15.536C56.1609 15.4297 67.2002 26.4602 67.2002 39.9735V39.977ZM51.624 70.708H33.7846V74.2143H51.624V70.708ZM51.624 78.7582V78.0322H33.7846V78.7582C33.9936 80.4104 35.3306 81.6429 36.9827 81.6429H48.4347C50.0763 81.6429 51.4239 80.4104 51.6222 78.7582H51.624ZM63.3806 39.977C63.3806 28.525 54.0979 19.2405 42.6459 19.2405C31.1957 19.2405 21.913 28.525 21.913 39.977C21.913 43.6904 22.9436 47.3012 24.7976 50.4993V50.6055C25.6175 51.9425 26.5543 53.1839 27.5849 54.319L27.7974 54.5315C31.1957 59.3818 33.1631 63.5078 33.6784 66.9078H51.7303C52.35 62.6755 55.2365 57.8341 57.8148 54.2251C57.8148 54.1189 57.9193 54.1189 58.0238 54.0126C58.9615 53.0646 59.7594 51.9877 60.3932 50.8145C60.3932 50.7082 60.4994 50.7082 60.4994 50.6055C60.4994 50.4993 60.6021 50.4993 60.6021 50.393C62.4562 47.3012 63.3823 43.6904 63.3823 39.9752L63.3806 39.977ZM14.8066 21.9233L10.9869 19.6514C10.7708 19.5262 10.5318 19.4457 10.284 19.4145C10.0363 19.3834 9.78478 19.4022 9.54441 19.4699C9.30404 19.5375 9.07968 19.6527 8.88459 19.8086C8.6895 19.9645 8.52764 20.1579 8.40858 20.3774C8.28346 20.5935 8.20293 20.8325 8.17175 21.0803C8.14057 21.328 8.15938 21.5795 8.22707 21.8199C8.29475 22.0603 8.40994 22.2846 8.56582 22.4797C8.72171 22.6748 8.91512 22.8367 9.13462 22.9557L12.9543 25.2277C13.2607 25.4385 13.5741 25.4385 13.8805 25.4385C14.502 25.4385 15.2174 25.1321 15.5326 24.5123C16.0391 23.5755 15.7345 22.4404 14.8066 21.9233Z" fill="#F85E00"/>
</g>
<defs>
<clipPath id="clip0_147_1177">
<rect width="85" height="85" fill="white" transform="translate(0.5 0.590088)"/>
</clipPath>
</defs>
</svg>
