<svg width="86" height="86" viewBox="0 0 86 86" fill="none" xmlns="http://www.w3.org/2000/svg">
<g clip-path="url(#clip0_147_1171)">
<path fill-rule="evenodd" clip-rule="evenodd" d="M13.1618 60.5991H1.9074C1.53062 60.5954 1.17073 60.4422 0.906829 60.1733C0.642929 59.9044 0.496618 59.5416 0.500059 59.1648C0.500059 54.4651 3.62031 50.3883 8.08873 49.2489L14.2034 47.6909L14.6316 45.9436C13.1177 44.2565 12.0568 42.0616 11.6566 39.8096C10.5032 39.4018 9.72095 38.4378 9.58 37.2553L9.15822 33.8241C9.10357 33.3828 9.14197 32.9351 9.27095 32.5096C9.39993 32.0841 9.61663 31.6903 9.90708 31.3537C10.1739 31.0417 10.4978 30.791 10.8518 30.6134C10.7334 29.5579 10.5935 28.1377 10.5935 27.4319C10.5935 24.0771 11.5748 20.2209 19.1247 20.0035C20.4697 19.1169 22.0029 18.5886 23.7954 18.3939C24.5217 18.3164 25.262 18.8781 25.3437 19.6678C25.4244 20.4565 24.8682 21.1623 24.0935 21.2452C22.6054 21.4087 21.4262 21.8369 20.3879 22.5966C20.1512 22.7666 19.8736 22.8612 19.5831 22.8634C13.4071 22.9269 13.4071 25.3198 13.4071 27.4319C13.4071 28.241 13.688 30.6705 13.7945 31.5398C13.8429 31.9509 13.7192 32.3576 13.4545 32.6707C13.1877 32.9773 12.8025 33.1548 12.4001 33.1548L12.017 33.2506L12.3721 36.9024C12.3792 36.969 12.4105 37.0306 12.4601 37.0757C12.5097 37.1207 12.5741 37.1459 12.6411 37.1466C13.3759 37.1466 14.2625 37.7201 14.3196 38.4668C14.496 40.6962 15.5537 42.9341 17.1525 44.4598C17.527 44.816 17.6787 45.3529 17.5571 45.8543L16.7308 49.2198C16.6038 49.7363 16.21 50.1387 15.7032 50.2646L8.76981 52.0345C6.02398 52.735 3.98398 54.9783 3.45139 57.7274L13.1618 57.7306C13.9387 57.7306 14.5692 58.3729 14.5692 59.1648C14.5692 59.9567 13.9387 60.5991 13.1618 60.5991ZM72.253 60.5991V57.7306H81.9634C81.4114 54.9127 79.2595 52.6005 76.3577 51.8774L69.1101 50.0784C68.8602 50.0161 68.632 49.8867 68.4503 49.704C68.2687 49.5214 68.1404 49.2926 68.0794 49.0423L67.2552 45.7607C67.1901 45.5039 67.1963 45.2343 67.273 44.9808C67.3498 44.7273 67.4943 44.4996 67.6909 44.3221C69.4243 42.7814 70.6154 40.3917 70.7983 38.0902C70.8236 37.7347 70.9818 37.4016 71.2413 37.1573C71.5008 36.9129 71.8427 36.7751 72.1992 36.7711C72.4639 36.7711 72.6156 36.6506 72.6349 36.4957L73.0739 33.0031C72.9674 32.7395 72.8802 32.6653 72.7307 32.6621C72.5402 32.6599 72.3522 32.6186 72.1784 32.5407C72.0046 32.4627 71.8487 32.3499 71.7204 32.2091C71.5897 32.0673 71.4888 31.9007 71.4236 31.7192C71.3583 31.5377 71.3301 31.3451 71.3406 31.1525L71.5557 26.7831C71.5727 26.4235 71.7227 26.083 71.9764 25.8276L72.8577 24.9529C73.1643 24.6279 73.7292 24.0286 72.6694 22.4158C71.8021 21.0967 70.2011 20.4307 67.9137 20.4307C66.5289 20.4307 65.3335 20.6082 64.2554 20.9762C63.5345 21.2312 62.7222 20.8234 62.4747 20.0691C62.3555 19.7099 62.3821 19.3182 62.549 18.9785C62.7158 18.6387 63.0095 18.3782 63.3667 18.2529C64.731 17.7881 66.2201 17.5611 67.9137 17.5611C71.1975 17.5611 73.5839 18.6575 75.0074 20.8148C77.0334 23.8909 75.7788 25.9944 74.8503 26.9778L74.3349 27.4889L74.2058 30.1626C74.5512 30.3434 74.8664 30.593 75.1258 30.8975C75.7078 31.5807 75.9757 32.4759 75.866 33.3679L75.427 36.8593C75.3558 37.4208 75.1363 37.9532 74.791 38.4016C74.4456 38.85 73.987 39.1982 73.4623 39.4104C73.0226 41.8353 71.8843 44.0791 70.1871 45.8661L70.596 47.4962L77.0216 49.0907C79.2739 49.6443 81.2755 50.9371 82.7064 52.7624C84.1373 54.5877 84.9149 56.8401 84.9147 59.1595C84.9147 59.9514 84.2842 60.5937 83.5085 60.5937L72.253 60.5991ZM17.4764 69.2013L67.9395 69.2078C67.3714 64.9061 64.3017 61.3318 60.0829 60.2559L50.5027 57.8134C50.2533 57.7487 50.0263 57.6174 49.8459 57.4336C49.6654 57.2497 49.5384 57.0203 49.4783 56.7698L48.383 52.3132C48.3212 52.0608 48.3283 51.7964 48.4037 51.5477C48.479 51.299 48.6198 51.0751 48.8113 50.8994C51.2311 48.6894 52.8267 45.3927 53.0849 42.0874C53.109 41.7308 53.2668 41.3964 53.5267 41.1511C53.7866 40.9057 54.1295 40.7675 54.4869 40.764C55.0636 40.764 55.4552 40.4121 55.5133 39.9441L56.0965 35.2013C56.113 35.0719 56.1016 34.9404 56.0632 34.8157C56.0248 34.691 55.9602 34.576 55.8738 34.4783C55.7904 34.3786 55.6862 34.2982 55.5686 34.2429C55.451 34.1875 55.3227 34.1584 55.1927 34.1576C55.003 34.1546 54.8158 34.1129 54.6427 34.0352C54.4696 33.9575 54.3141 33.8454 54.1856 33.7057C54.0558 33.5642 53.9553 33.3984 53.8901 33.2177C53.8249 33.0371 53.7962 32.8453 53.8058 32.6534L54.0899 26.7228C54.1071 26.3678 54.2513 26.0321 54.4987 25.7792L55.6575 24.5946C56.3612 23.8307 56.9207 22.7117 55.4768 20.4716C54.2362 18.5402 52.0014 17.5622 48.822 17.5622C46.4818 17.5622 43.7435 17.8118 41.2021 19.6624C40.9654 19.8367 40.6857 19.9293 40.3984 19.9314C32.0103 20.0153 31.3282 23.0904 31.3282 26.7949C31.3282 27.9397 31.7177 31.3279 31.8661 32.5394C31.8913 32.7407 31.8741 32.945 31.8155 33.1392C31.757 33.3334 31.6584 33.5132 31.5261 33.667C31.3957 33.819 31.2339 33.941 31.0519 34.0245C30.8699 34.1081 30.672 34.1513 30.4717 34.1512C29.8713 34.1512 29.6432 34.3524 29.5421 34.4697C29.4552 34.5695 29.3904 34.6866 29.352 34.8132C29.3136 34.9399 29.3025 35.0732 29.3194 35.2045L29.9025 39.9441C29.928 40.1682 30.0344 40.3754 30.2018 40.5265C30.3692 40.6777 30.5861 40.7625 30.8117 40.765H31.1915C31.9253 40.765 32.5364 41.3385 32.5924 42.0852C32.8431 45.2894 34.3709 48.5194 36.6724 50.7294C37.0468 51.0845 37.2018 51.616 37.078 52.1217L35.9375 56.7698C35.8773 57.0205 35.75 57.2502 35.5691 57.434C35.3883 57.6179 35.1608 57.7491 34.9111 57.8134L25.333 60.2559C21.1152 61.3318 18.0423 64.904 17.4764 69.2013ZM15.9765 72.0762C15.6021 72.0762 15.2449 71.9245 14.9802 71.6545C14.7165 71.3835 14.5694 71.0201 14.5702 70.642C14.5702 64.3983 18.7148 58.9819 24.6519 57.4691L33.4112 55.2398L34.1536 52.2164C31.9587 49.8633 30.4416 46.729 29.9337 43.5281C29.1928 43.3382 28.5268 42.9285 28.0231 42.353C27.5193 41.7774 27.2016 41.063 27.1115 40.3034L26.5283 35.5607C26.4623 35.0261 26.5087 34.4837 26.6647 33.9682C26.8208 33.4527 27.0829 32.9755 27.4343 32.5674C27.8344 32.1056 28.3416 31.7491 28.9116 31.5291C28.7491 30.0626 28.5156 27.8224 28.5156 26.7949C28.5156 22.1091 29.8853 17.3061 39.9336 17.0716C43.4477 14.6926 47.193 14.6926 48.822 14.6926C53.0096 14.6926 56.0395 16.1075 57.8299 18.8996C60.1873 22.5632 59.0478 25.1046 57.6771 26.5916L56.8733 27.4179L56.6732 31.6033C57.1816 31.8307 57.6332 32.1681 57.9956 32.591C58.6906 33.4023 59.0177 34.4847 58.8875 35.5574L58.3054 40.3024C58.2194 41.0126 57.9347 41.6841 57.4842 42.2398C57.0338 42.7955 56.4357 43.213 55.7587 43.4441C55.2497 46.7871 53.6455 50.0322 51.3128 52.4283L52.0047 55.2398L60.764 57.4691C66.6989 58.9819 70.8456 64.3983 70.8456 70.6366C70.8475 70.8231 70.8126 71.0082 70.7429 71.1812C70.6732 71.3542 70.5701 71.5118 70.4396 71.645C70.309 71.7782 70.1534 71.8843 69.9818 71.9574C69.8102 72.0305 69.6259 72.069 69.4394 72.0709L15.9765 72.0762Z" fill="#F85E00"/>
</g>
<defs>
<clipPath id="clip0_147_1171">
<rect width="85" height="85" fill="white" transform="translate(0.5 0.590088)"/>
</clipPath>
</defs>
</svg>
