<svg width="57" height="56" viewBox="0 0 57 56" fill="none" xmlns="http://www.w3.org/2000/svg">
<g clip-path="url(#clip0_147_1157)">
<path d="M55.3763 2.21259e-06H49.9563C49.7169 0.0002669 49.4874 0.0954891 49.3181 0.264777C49.1488 0.434065 49.0536 0.663593 49.0533 0.903002V19.871H44.0093L28.9193 4.781C28.8355 4.69689 28.7359 4.63015 28.6263 4.5846C28.5166 4.53906 28.399 4.51562 28.2803 4.51562C28.1616 4.51562 28.044 4.53906 27.9343 4.5846C27.8247 4.63015 27.7251 4.69689 27.6413 4.781L25.5713 6.851V0.904002C25.5713 0.785119 25.5478 0.667403 25.5023 0.557594C25.4567 0.447785 25.39 0.34804 25.3058 0.26407C25.2217 0.180099 25.1218 0.113553 25.0119 0.0682402C24.9019 0.0229278 24.7842 -0.000260804 24.6653 2.21259e-06H10.2143C9.97489 0.0002669 9.74536 0.0954891 9.57607 0.264777C9.40678 0.434065 9.31156 0.663593 9.3113 0.903002V19.871H7.5053V0.903002C7.50503 0.663593 7.40981 0.434065 7.24052 0.264777C7.07123 0.0954891 6.84171 0.0002669 6.6023 2.21259e-06H1.1823C0.942888 0.0002669 0.71336 0.0954891 0.544072 0.264777C0.374784 0.434065 0.279562 0.663593 0.279297 0.903002L0.279297 55.097C0.279297 55.595 0.684297 56 1.1823 56H55.3763C55.6158 56 55.8455 55.9049 56.0148 55.7355C56.1842 55.5662 56.2793 55.3365 56.2793 55.097V0.903002C56.279 0.663593 56.1838 0.434065 56.0145 0.264777C55.8452 0.0954891 55.6157 0.0002669 55.3763 2.21259e-06ZM25.9433 48.774L30.9893 43.729V48.774H25.9433ZM14.7313 37.935H11.1183V36.13H14.7313V37.935ZM11.1183 39.742H14.7313V48.774H11.1183V39.742ZM18.7183 48.774L28.2793 39.213L30.6153 41.548L23.3893 48.774H18.7183ZM32.7943 30.71H38.2143V48.774H32.7943V30.71ZM40.0203 30.71H45.4403V48.774H40.0203V30.71ZM46.3433 28.903H31.8923C31.6529 28.9033 31.4234 28.9985 31.2541 29.1678C31.0848 29.3371 30.9896 29.5666 30.9893 29.806V39.368L28.9183 37.297C28.8345 37.2129 28.7349 37.1461 28.6253 37.1006C28.5156 37.0551 28.398 37.0316 28.2793 37.0316C28.1606 37.0316 28.043 37.0551 27.9333 37.1006C27.8237 37.1461 27.7241 37.2129 27.6403 37.297L16.5373 48.4V35.226C16.537 34.9866 16.4418 34.7571 16.2725 34.5878C16.1032 34.4185 15.8737 34.3233 15.6343 34.323H10.2143C9.97489 34.3233 9.74536 34.4185 9.57607 34.5878C9.40678 34.7571 9.31156 34.9866 9.3113 35.226V48.774H7.5053V27.097H49.0533V48.774H47.2473V29.806C47.247 29.5664 47.1517 29.3367 46.9822 29.1674C46.8127 28.9981 46.5829 28.903 46.3433 28.903ZM28.2793 6.697L41.4533 19.87H36.7823L25.9433 9.032L28.2793 6.697ZM34.2283 19.871H25.5693V11.213L34.2283 19.871ZM23.7633 19.871H18.3433V1.806H23.7633V19.871ZM11.1183 1.806H16.5383V19.871H11.1183V1.806ZM49.0533 21.677V25.29H7.5053V21.677H49.0533ZM2.0853 1.807H5.6993V54.193H2.0853V1.806V1.807ZM7.5053 50.581H49.0533V54.193H7.5053V50.581ZM54.4733 54.193H50.8593V1.806H54.4713V54.194L54.4733 54.193Z" fill="#F85E00"/>
<path d="M14.7308 3.61304H12.9238V5.41904H14.7308V3.61304ZM21.9558 3.61304H20.1498V5.41904H21.9558V3.61304ZM43.6338 32.516H41.8268V34.323H43.6338V32.516ZM36.4078 32.516H34.6018V34.323H36.4078V32.516Z" fill="#F85E00"/>
</g>
<defs>
<clipPath id="clip0_147_1157">
<rect width="56" height="56" fill="white" transform="translate(0.279297)"/>
</clipPath>
</defs>
</svg>
