<svg width="57" height="56" viewBox="0 0 57 56" fill="none" xmlns="http://www.w3.org/2000/svg">
<g clip-path="url(#clip0_147_1148)">
<path d="M15.3719 22.3999H13.5059V24.2669H15.3719V22.3999ZM20.9719 22.3999H19.1059V24.2669H20.9719V22.3999Z" fill="#F85E00"/>
<path d="M55.5055 50.4001H46.1715V49.4671C46.1694 48.7251 45.8737 48.0142 45.3491 47.4895C44.8244 46.9649 44.1135 46.6692 43.3715 46.6671V44.8001H50.8385C51.5804 44.7977 52.2912 44.502 52.8158 43.9774C53.3404 43.4528 53.6361 42.742 53.6385 42.0001V28.9331C53.6364 28.1911 53.3407 27.4802 52.8161 26.9555C52.2914 26.4309 51.5805 26.1352 50.8385 26.1331H28.4385C28.3915 26.1331 28.3455 26.1431 28.2985 26.1431C28.3865 25.8361 28.4335 25.5191 28.4385 25.2001C28.4393 24.545 28.267 23.9013 27.9392 23.3341C27.6113 22.767 27.1395 22.2964 26.5715 21.9701V19.6001C26.5675 17.126 25.583 14.7545 23.8335 13.005C22.0841 11.2556 19.7125 10.2711 17.2385 10.2671C14.7633 10.2674 12.3896 11.2507 10.6394 13.001C8.88915 14.7512 7.90577 17.1249 7.9055 19.6001V21.9701C7.15013 22.4039 6.57099 23.0891 6.26909 23.9061C5.96718 24.7232 5.96167 25.6204 6.2535 26.4411C5.60614 26.9689 5.08371 27.6335 4.72373 28.3871C4.36375 29.1408 4.17515 29.9649 4.1715 30.8001C4.16794 31.7782 4.42453 32.7397 4.91497 33.586C5.40541 34.4322 6.11207 35.1329 6.9625 35.6161C5.82066 36.3802 4.88393 37.4129 4.23461 38.6237C3.58528 39.8345 3.24323 41.1862 3.2385 42.5601V45.7331C3.23804 46.6032 3.41215 47.4646 3.75054 48.2662C4.08892 49.0679 4.58469 49.7935 5.2085 50.4001H1.3705C1.12305 50.4001 0.885741 50.4984 0.710769 50.6734C0.535798 50.8483 0.4375 51.0856 0.4375 51.3331V55.0671C0.4375 55.1897 0.461666 55.3111 0.508616 55.4244C0.555566 55.5376 0.62438 55.6405 0.711123 55.7272C0.797866 55.8138 0.900837 55.8825 1.01415 55.9294C1.12746 55.9762 1.24889 56.0002 1.3715 56.0001H55.5055C55.7529 56.0001 55.9903 55.9018 56.1652 55.7268C56.3402 55.5518 56.4385 55.3145 56.4385 55.0671V51.3331C56.4385 51.0856 56.3402 50.8483 56.1652 50.6734C55.9903 50.4984 55.7529 50.4001 55.5055 50.4001ZM44.3055 49.4671V50.4001H34.9715V49.4671C34.9714 49.3444 34.9954 49.2229 35.0423 49.1095C35.0892 48.9961 35.158 48.8931 35.2448 48.8064C35.3315 48.7196 35.4345 48.6508 35.5479 48.6039C35.6613 48.557 35.7828 48.533 35.9055 48.5331H43.3715C43.4942 48.533 43.6157 48.557 43.7291 48.6039C43.8425 48.6508 43.9455 48.7196 44.0322 48.8064C44.119 48.8931 44.1878 48.9961 44.2347 49.1095C44.2816 49.2229 44.3056 49.3444 44.3055 49.4671ZM33.1055 49.4671V50.4001H29.2685C29.8921 49.7934 30.3876 49.0677 30.7258 48.2661C31.0641 47.4645 31.238 46.6031 31.2375 45.7331V44.8001H35.9045V46.6671C35.1625 46.6692 34.4516 46.9649 33.9269 47.4895C33.4023 48.0142 33.1076 48.7251 33.1055 49.4671ZM37.7715 46.6671V39.2001H41.5055V46.6671H37.7715ZM27.5055 28.9331C27.5055 28.6856 27.6038 28.4483 27.7788 28.2734C27.9537 28.0984 28.1911 28.0001 28.4385 28.0001H50.8385C51.0859 28.0001 51.3233 28.0984 51.4982 28.2734C51.6732 28.4483 51.7715 28.6856 51.7715 28.9331V42.0001C51.7712 42.2475 51.6729 42.4846 51.4979 42.6595C51.323 42.8344 51.0859 42.9328 50.8385 42.9331H43.3715V38.2671C43.3716 38.1445 43.3476 38.0231 43.3008 37.9097C43.2539 37.7964 43.1852 37.6935 43.0986 37.6067C43.0119 37.52 42.909 37.4512 42.7958 37.4042C42.6825 37.3573 42.5611 37.3331 42.4385 37.3331H36.8385C36.591 37.3334 36.3536 37.4319 36.1787 37.607C36.0038 37.7821 35.9055 38.0195 35.9055 38.2671V42.9331H28.4385C28.1911 42.9328 27.954 42.8344 27.7791 42.6595C27.6041 42.4846 27.5058 42.2475 27.5055 42.0001V28.9331ZM29.3715 44.8001V45.7331C29.3715 46.9707 28.8799 48.1576 28.0049 49.0328C27.1299 49.908 25.9431 50.3998 24.7055 50.4001H23.7715V47.6001C25.0975 47.6001 26.1705 46.4241 26.4785 44.8001H29.3715ZM25.3395 23.4551C25.7014 23.5808 26.0148 23.8167 26.2358 24.1297C26.4567 24.4427 26.5741 24.817 26.5715 25.2001C26.5675 25.5741 26.4575 25.9401 26.2545 26.2551C26.1845 26.3612 26.1376 26.4809 26.1168 26.6063C26.096 26.7317 26.1016 26.86 26.1335 26.9831C26.1574 27.0665 26.1952 27.1453 26.2455 27.2161C25.8552 27.7035 25.6412 28.3086 25.6385 28.9331V34.4121C25.4941 34.4472 25.3474 34.4723 25.1995 34.4871L20.9715 32.9471V30.7251C22.1053 30.0703 23.047 29.129 23.7023 27.9956C24.3577 26.8621 24.7036 25.5763 24.7055 24.2671V22.5681C24.705 22.7637 24.7659 22.9546 24.8796 23.1137C24.9934 23.2728 25.1542 23.3923 25.3395 23.4551ZM19.7215 34.4771L20.3655 34.7111C19.3981 35.208 18.3261 35.4672 17.2385 35.4672C16.1509 35.4672 15.0789 35.208 14.1115 34.7111L14.7555 34.4771C14.9365 34.4129 15.0931 34.294 15.2035 34.1369C15.3138 33.9797 15.3726 33.7921 15.3715 33.6001V31.4901C15.9815 31.6511 16.6085 31.7331 17.2385 31.7331C17.8684 31.7292 18.4954 31.6479 19.1055 31.4911V33.6001C19.1046 33.7921 19.1634 33.9796 19.2737 34.1368C19.3841 34.2939 19.5406 34.4128 19.7215 34.4771ZM17.2385 29.8671C15.754 29.8647 14.331 29.2739 13.2813 28.2243C12.2316 27.1746 11.6409 25.7516 11.6385 24.2671V21.4101C11.9485 21.4481 12.2595 21.4671 12.5715 21.4661C13.995 21.4358 15.3943 21.0916 16.6695 20.4581C17.7166 19.93 18.8664 19.6372 20.0385 19.6001C20.4429 19.5679 20.8496 19.6175 21.2345 19.7458C21.6193 19.8742 21.9743 20.0786 22.2785 20.3471C22.4465 20.4681 22.6335 20.6081 22.8385 20.7391V24.2671C22.8385 25.7523 22.2485 27.1767 21.1983 28.2269C20.1481 29.2771 18.7237 29.8671 17.2385 29.8671ZM9.7715 19.6001C9.77309 17.6202 10.5603 15.7219 11.9603 14.3219C13.3603 12.9219 15.2586 12.1347 17.2385 12.1331C19.2181 12.1357 21.1158 12.9233 22.5155 14.323C23.9153 15.7228 24.7029 17.6205 24.7055 19.6001V20.1881C24.7059 20.0094 24.6551 19.8343 24.559 19.6837C24.463 19.533 24.3257 19.4131 24.1635 19.3381C23.8918 19.2044 23.6353 19.0418 23.3985 18.8531C22.4606 18.068 21.2599 17.6678 20.0385 17.7331C18.6153 17.7635 17.2164 18.1077 15.9415 18.7411C14.8942 19.2696 13.744 19.5628 12.5715 19.6001C12.0668 19.6254 11.5629 19.5362 11.0975 19.3391C10.9543 19.2755 10.7976 19.2482 10.6414 19.2595C10.4851 19.2709 10.334 19.3205 10.2015 19.4041C10.0691 19.4874 9.96009 19.6032 9.88485 19.7403C9.8096 19.8775 9.77059 20.0316 9.7715 20.1881V19.6001ZM6.0385 30.8001C6.03537 30.1445 6.20661 29.4999 6.53469 28.9323C6.86276 28.3647 7.33587 27.8946 7.9055 27.5701C8.0158 27.5063 8.11167 27.4202 8.18706 27.3175C8.26245 27.2147 8.31572 27.0975 8.3435 26.9731C8.37484 26.8516 8.38026 26.7249 8.35941 26.6012C8.33856 26.4775 8.29191 26.3596 8.2225 26.2551C8.01956 25.9403 7.90968 25.5746 7.9055 25.2001C7.90302 24.817 8.02048 24.4428 8.24142 24.1298C8.46236 23.8169 8.7757 23.581 9.1375 23.4551C9.32284 23.3924 9.48377 23.273 9.59755 23.1138C9.71132 22.9547 9.77217 22.7637 9.7715 22.5681V24.2671C9.76826 25.2482 9.95962 26.2202 10.3345 27.1268C10.7094 28.0335 11.2603 28.8568 11.9555 29.5491C12.4165 30.0091 12.9385 30.4051 13.5055 30.7251V32.9471L9.2775 34.4871C8.37991 34.3755 7.55444 33.9385 6.95748 33.259C6.36052 32.5795 6.03355 31.7046 6.0385 30.8001ZM5.1055 42.5601C5.10561 41.2198 5.51864 39.9121 6.2884 38.8149C7.05815 37.7177 8.14725 36.8843 9.4075 36.4281L12.0025 35.4851C13.4595 36.727 15.3248 37.3853 17.2385 37.3331C19.1522 37.3853 21.0175 36.727 22.4745 35.4851L25.0695 36.4281C25.2645 36.4951 25.4545 36.5761 25.6385 36.6711V41.0851C25.4176 40.7977 25.1354 40.5631 24.8124 40.3984C24.4895 40.2338 24.1339 40.1431 23.7715 40.1331V42.0001C24.1545 42.0001 24.7055 42.7281 24.7055 43.8671C24.7055 45.0051 24.1545 45.7331 23.7715 45.7331H20.9715C20.2446 45.7359 19.5284 45.9088 18.8802 46.2378C18.232 46.5668 17.6698 47.043 17.2385 47.6281C16.8072 47.043 16.245 46.5668 15.5968 46.2378C14.9486 45.9088 14.2324 45.7359 13.5055 45.7331H10.7055C10.3225 45.7331 9.7715 45.0051 9.7715 43.8671C9.7715 42.7281 10.3225 42.0001 10.7055 42.0001V40.1331C9.3795 40.1331 8.3065 41.3091 7.9985 42.9331H5.1055V42.5601ZM21.9055 47.6001V50.4001H18.1715C18.1736 49.6581 18.4693 48.9472 18.9939 48.4225C19.5186 47.8979 20.2295 47.6022 20.9715 47.6001H21.9055ZM16.3055 50.4001H12.5715V47.6001H13.5055C14.2475 47.6022 14.9584 47.8979 15.4831 48.4225C16.0077 48.9472 16.3034 49.6581 16.3055 50.4001ZM5.1055 45.7331V44.8001H7.9985C8.3065 46.4241 9.3795 47.6001 10.7055 47.6001V50.4001H9.7715C8.53391 50.3998 7.3471 49.908 6.47208 49.0328C5.59706 48.1576 5.1055 46.9707 5.1055 45.7331ZM54.5715 54.1331H2.3055V52.2671H54.5715V54.1331Z" fill="#F85E00"/>
<path d="M53.6395 0H31.2395C30.4968 0 29.7847 0.294999 29.2596 0.820101C28.7345 1.3452 28.4395 2.05739 28.4395 2.8V17.733C28.4395 18.4756 28.7345 19.1878 29.2596 19.7129C29.7847 20.238 30.4968 20.533 31.2395 20.533H39.1725L41.6925 23.893C41.7793 24.0091 41.8921 24.1034 42.0218 24.1683C42.1514 24.2332 42.2944 24.267 42.4395 24.267C42.5845 24.267 42.7275 24.2332 42.8572 24.1683C42.9868 24.1034 43.0996 24.0091 43.1865 23.893L45.7065 20.533H53.6395C54.3821 20.533 55.0942 20.238 55.6194 19.7129C56.1445 19.1878 56.4395 18.4756 56.4395 17.733V2.8C56.4395 2.05739 56.1445 1.3452 55.6194 0.820101C55.0942 0.294999 54.3821 0 53.6395 0ZM54.5725 17.733C54.5726 17.8556 54.5485 17.977 54.5017 18.0904C54.4549 18.2037 54.3862 18.3066 54.2995 18.3934C54.2129 18.4801 54.11 18.5489 53.9967 18.5959C53.8835 18.6428 53.7621 18.667 53.6395 18.667H45.2395C45.0945 18.6669 44.9516 18.7005 44.8219 18.7653C44.6922 18.83 44.5794 18.9241 44.4925 19.04L42.4395 21.778L40.3865 19.04C40.2994 18.9241 40.1866 18.8301 40.057 18.7654C39.9273 18.7006 39.7844 18.667 39.6395 18.667H31.2395C30.9919 18.6667 30.7546 18.5682 30.5797 18.3931C30.4047 18.218 30.3065 17.9805 30.3065 17.733V2.8C30.3065 2.67748 30.3306 2.55615 30.3775 2.44296C30.4244 2.32976 30.4931 2.22691 30.5797 2.14027C30.7547 1.9653 30.992 1.867 31.2395 1.867H53.6395C53.8868 1.86726 54.124 1.96565 54.2989 2.14056C54.4738 2.31548 54.5722 2.55263 54.5725 2.8V17.733Z" fill="#F85E00"/>
<path d="M42.4387 7.40007C41.9134 6.87495 41.2011 6.57998 40.4583 6.58008C39.7156 6.58017 39.0033 6.87531 38.4782 7.40057C37.9531 7.92584 37.6581 8.63819 37.6582 9.38093C37.6583 10.1237 37.9534 10.8359 38.4787 11.3611L41.7787 14.6611C41.8653 14.7478 41.9682 14.8166 42.0815 14.8635C42.1947 14.9105 42.3161 14.9346 42.4387 14.9346C42.5613 14.9346 42.6827 14.9105 42.7959 14.8635C42.9092 14.8166 43.0121 14.7478 43.0987 14.6611L46.3987 11.3611C46.6587 11.1011 46.865 10.7924 47.0057 10.4526C47.1464 10.1129 47.2188 9.74879 47.2188 9.38107C47.2188 9.01335 47.1464 8.64924 47.0057 8.30951C46.865 7.96978 46.6587 7.66109 46.3987 7.40107C46.1387 7.14106 45.83 6.9348 45.4903 6.79408C45.1505 6.65336 44.7864 6.58093 44.4187 6.58093C44.051 6.58093 43.6869 6.65336 43.3471 6.79408C43.0074 6.9348 42.6987 7.14006 42.4387 7.40007ZM45.0787 10.0401L42.4387 12.6801L39.7987 10.0401C39.6241 9.86482 39.526 9.62749 39.526 9.38007C39.526 9.13266 39.6241 8.89533 39.7987 8.72007C39.8853 8.63336 39.9882 8.56456 40.1015 8.51763C40.2147 8.47069 40.3361 8.44654 40.4587 8.44654C40.5813 8.44654 40.7027 8.47069 40.8159 8.51763C40.9292 8.56456 41.0321 8.63336 41.1187 8.72007L41.7787 9.38007C41.9537 9.5549 42.1909 9.65311 42.4382 9.65311C42.6855 9.65311 42.9227 9.5549 43.0977 9.38007L43.7577 8.72007C43.8444 8.6334 43.9473 8.56465 44.0605 8.51774C44.1738 8.47084 44.2951 8.44669 44.4177 8.44669C44.5403 8.44669 44.6616 8.47084 44.7749 8.51774C44.8881 8.56465 44.991 8.6334 45.0777 8.72007C45.1644 8.80675 45.2331 8.90964 45.28 9.02289C45.3269 9.13613 45.3511 9.2575 45.3511 9.38007C45.3511 9.50265 45.3269 9.62402 45.28 9.73726C45.2331 9.85051 45.1654 9.9534 45.0787 10.0401Z" fill="#F85E00"/>
</g>
<defs>
<clipPath id="clip0_147_1148">
<rect width="56" height="56" fill="white" transform="translate(0.439453)"/>
</clipPath>
</defs>
</svg>
