<svg width="57" height="56" viewBox="0 0 57 56" fill="none" xmlns="http://www.w3.org/2000/svg">
<g clip-path="url(#clip0_147_1130)">
<path d="M50.7488 9.30868H22.8228C17.4479 9.30868 14.8359 12.1224 14.8359 17.9147V50.0323C14.8359 53.9365 17.1679 56 21.5802 56H50.7478C51.2159 56 51.5962 55.6196 51.5962 55.1515V10.1561C51.5967 10.0446 51.575 9.93419 51.5326 9.83113C51.4902 9.72808 51.4278 9.63442 51.349 9.55557C51.2703 9.47671 51.1767 9.41421 51.0737 9.37166C50.9707 9.3291 50.8603 9.30734 50.7488 9.30762V9.30868ZM49.9004 54.3031H21.5813C17.1087 54.3031 16.535 52.0208 16.535 50.0323C16.535 48.0427 17.1087 45.7583 21.5813 45.7583H49.9004V54.3031ZM21.5813 44.0635C19.3603 44.0635 17.6687 44.5897 16.535 45.6062V17.9168C16.535 13.0734 18.4157 11.0066 22.8239 11.0066H49.9025V44.0635H21.5813Z" fill="#F85E00"/>
<path d="M19.0254 48.6353C19.0254 49.1034 19.4058 49.4838 19.8738 49.4838H47.4914C47.7164 49.4838 47.9322 49.3944 48.0913 49.2353C48.2504 49.0762 48.3398 48.8604 48.3398 48.6353C48.3398 48.4103 48.2504 48.1945 48.0913 48.0354C47.9322 47.8763 47.7164 47.7869 47.4914 47.7869H19.8749C19.6499 47.7869 19.4341 47.8763 19.275 48.0354C19.1158 48.1945 19.0264 48.4103 19.0264 48.6353H19.0254ZM47.4914 50.7348H19.8749C19.6499 50.7348 19.4341 50.8242 19.275 50.9833C19.1158 51.1424 19.0264 51.3582 19.0264 51.5833C19.0264 51.8083 19.1158 52.0241 19.275 52.1832C19.4341 52.3423 19.6499 52.4317 19.8749 52.4317H47.4914C47.7163 52.4314 47.9319 52.342 48.091 52.1829C48.25 52.0239 48.3395 51.8082 48.3398 51.5833C48.3401 51.4718 48.3183 51.3613 48.2758 51.2583C48.2332 51.1552 48.1708 51.0616 48.0919 50.9827C48.0131 50.9039 47.9194 50.8414 47.8164 50.7988C47.7133 50.7563 47.6028 50.7345 47.4914 50.7348ZM21.892 12.8778C21.7805 12.8776 21.6701 12.8995 21.5671 12.9421C21.4641 12.9847 21.3705 13.0471 21.2917 13.126C21.2129 13.2048 21.1504 13.2984 21.1078 13.4014C21.0652 13.5044 21.0434 13.6148 21.0435 13.7262V40.2575C21.0435 40.4826 21.1329 40.6984 21.292 40.8575C21.4511 41.0166 21.6669 41.106 21.892 41.106C22.117 41.106 22.3328 41.0166 22.4919 40.8575C22.651 40.6984 22.7404 40.4826 22.7404 40.2575V13.7252C22.7405 13.6137 22.7187 13.5033 22.6761 13.4003C22.6335 13.2973 22.571 13.2037 22.4922 13.1249C22.4134 13.0461 22.3198 12.9836 22.2168 12.941C22.1138 12.8984 22.0034 12.8776 21.892 12.8778ZM45.6286 14.5863H26.392C26.2806 14.5862 26.1702 14.608 26.0672 14.6506C25.9642 14.6932 25.8706 14.7557 25.7918 14.8345C25.713 14.9133 25.6505 15.0069 25.6079 15.1099C25.5653 15.2129 25.5434 15.3233 25.5436 15.4347V21.9508C25.5436 22.4178 25.924 22.7993 26.392 22.7993H45.6307C45.8556 22.799 46.0713 22.7095 46.2303 22.5505C46.3894 22.3914 46.4788 22.1758 46.4791 21.9508V15.4347C46.4795 15.3232 46.4579 15.2127 46.4154 15.1096C46.3729 15.0064 46.3104 14.9127 46.2316 14.8339C46.1527 14.755 46.059 14.6925 45.9559 14.65C45.8527 14.6075 45.7422 14.5859 45.6307 14.5863H45.6286ZM44.7812 21.1024H27.2394V16.2821H44.7812V21.1003V21.1024Z" fill="#F85E00"/>
<path d="M5.67347 36.2986V8.60498C5.67347 3.76362 7.55422 1.69691 11.9603 1.69691H39.04V7.61072H40.7369V0.848453C40.7369 0.623429 40.6475 0.407622 40.4884 0.248506C40.3292 0.0893903 40.1134 0 39.8884 0L11.9613 0C6.58849 0 3.97656 2.81479 3.97656 8.60498V40.7226C3.97656 44.6267 6.30849 46.6924 10.7209 46.6924H13.1405V44.9955H10.7209C6.2472 44.9955 5.67347 42.7111 5.67347 40.7226C5.67347 38.733 6.2472 36.4497 10.7209 36.4497H13.1405V34.7517H10.7209C8.49883 34.7517 6.8072 35.2811 5.67347 36.2986Z" fill="#F85E00"/>
<path d="M8.16602 39.3267C8.16602 39.7937 8.5464 40.1751 9.01447 40.1751H13.1416V38.4782H9.01447C8.90297 38.4779 8.79252 38.4997 8.68945 38.5422C8.58639 38.5848 8.49274 38.6473 8.4139 38.7261C8.33506 38.805 8.27258 38.8986 8.23004 39.0017C8.1875 39.1047 8.16574 39.2152 8.16602 39.3267ZM8.16602 42.2735C8.16602 42.7437 8.5464 43.122 9.01447 43.122H13.1416V41.4251H9.01447C8.78953 41.4254 8.57389 41.5149 8.41483 41.6739C8.25578 41.833 8.1663 42.0486 8.16602 42.2735ZM10.182 4.41649V30.9489C10.182 31.1739 10.2714 31.3897 10.4305 31.5488C10.5896 31.7079 10.8054 31.7973 11.0305 31.7973C11.2555 31.7973 11.4713 31.7079 11.6304 31.5488C11.7895 31.3897 11.8789 31.1739 11.8789 30.9489V4.41754C11.8789 4.19252 11.7895 3.97671 11.6304 3.8176C11.4713 3.65848 11.2555 3.56909 11.0305 3.56909C10.8054 3.56909 10.5896 3.65848 10.4305 3.8176C10.2714 3.97671 10.182 4.19252 10.182 4.41754V4.41649Z" fill="#F85E00"/>
</g>
<defs>
<clipPath id="clip0_147_1130">
<rect width="56" height="56" fill="white" transform="translate(0.279297)"/>
</clipPath>
</defs>
</svg>
